<svg xmlns="http://www.w3.org/2000/svg" viewBox="0 0 1918.46 579.15"><defs><style>.cls-1{fill:#35ae47;}.cls-2{font-size:37.11px;}.cls-2,.cls-26,.cls-3,.cls-4{fill:#e7291a;}.cls-2,.cls-3,.cls-4{font-family:VDL-LogoJrBlack-Black, VDL LogoJrBlack-Black-90ms-RKSJ-H;font-weight:800;}.cls-3{font-size:51.96px;}.cls-4{font-size:25.98px;}.cls-5{fill:#231815;}.cls-6{fill:#d3132c;}.cls-7{fill:#fff;}.cls-8{fill:#74000a;}.cls-9{fill:#b3b3b4;}.cls-10{fill:#e7291c;}.cls-11{fill:#c42126;}.cls-12{fill:#909090;}.cls-13{fill:#9b9b9c;}.cls-14{fill:#666464;}.cls-15{fill:#041609;}.cls-16{fill:#132c1f;}.cls-17{fill:#9f0106;}.cls-18{fill:#831a00;}.cls-19{fill:#393332;}.cls-20{fill:#5c5a5a;}.cls-21{fill:#4f4c4b;}.cls-22{fill:#e6141c;}.cls-23{fill:#850000;}.cls-24{fill:#1c3249;}.cls-25{fill:#61b963;}</style></defs><g id="レイヤー_2" data-name="レイヤー 2"><g id="レイヤー_1-2" data-name="レイヤー 1"><polygon class="cls-1" points="958.5 579.15 542.51 579.15 0 0.43 375.46 0.43 958.5 579.15"/><text class="cls-2" transform="translate(307.33 83.32)">Web Creator</text><text class="cls-3" transform="translate(179.81 144.12)">Natsume Hatakeyama</text><text class="cls-4" transform="translate(323.17 512.37)">Tel:000-0000-0000</text><text class="cls-4" transform="translate(291.04 549.78)">Mail:ababa@gmail.com</text><path class="cls-5" d="M680.5,428.29c13.2,18.15-109.68,30.26-202.31,30.26s-216.13-7.82-216.13-30.26S370,417.92,462.63,417.92,666.66,409.27,680.5,428.29Z"/><circle class="cls-5" cx="314.23" cy="379.32" r="68.87"/><circle class="cls-6" cx="314.23" cy="379.32" r="48.21"/><polygon class="cls-7" points="318.04 354.37 307.54 354.37 297.83 358.38 290.42 365.81 286.4 375.51 286.4 386.01 290.42 395.71 297.83 403.13 307.54 407.15 318.04 407.15 327.74 403.13 335.16 395.71 339.18 386.01 339.18 375.51 335.16 365.81 327.74 358.38 318.04 354.37"/><circle class="cls-5" cx="630.36" cy="380.76" r="68.88"/><circle class="cls-6" cx="630.36" cy="380.76" r="48.21"/><polygon class="cls-7" points="634.17 355.81 623.67 355.81 613.97 359.83 606.55 367.25 602.53 376.95 602.53 387.45 606.55 397.15 613.97 404.57 623.67 408.59 634.17 408.59 643.88 404.57 651.3 397.15 655.32 387.45 655.32 376.95 651.3 367.25 643.88 359.83 634.17 355.81"/><path class="cls-8" d="M582,201s1.16,4.61,3.27,5.28,14.22,9.23,14.22,9.23,12.87,10.18-1.44,9.94c0,0-.58,10.32-3.8,13.11,0,0-5.91,9.89-31.84,18.73l-17.29,4.81s3.46-8.65-5.29-16.82c0,0,4.9.29,4.33-7.2,0,0,23.24-11.53,15-19.4a16,16,0,0,0,14-7.11C579,203.53,582,201,582,201Z"/><path class="cls-5" d="M616.53,257.61c7.49-7.3,1.35-9.61,1.35-9.61L597.7,225.72s12.59-.39,1.83-10.18c0,0-12.68-9.61-14.22-9.23-3.26.82-4-8.26-4-8.26,12.48-1.92,61.47,64.36,61.47,64.36l.2,7.88,4,11.53-16.52,1.53,7.49-6.14-21.32-19.6"/><path class="cls-9" d="M569.85,235.8l68,140.06c5.16,10.17-8.49,7-10.67,5.19L559.47,241.57S560.62,231.77,569.85,235.8Z"/><path class="cls-10" d="M594.29,238.59c-2.55,5.13-31.25,19.51-31.84,18.73L506,273.89c-11,1-17,13.55-17,13.55l38.76,5.62-49.85,15.85,13.25,12.53,12.11,3.89,7.63-2.45,38,12.39,9.66,6.78,80.06-64.89-21.32-19.6s0-.57,3.07-3.46-.77-5.95-.77-5.95l-21.51-22.67S598.1,230.93,594.29,238.59Z"/><path class="cls-5" d="M490,287.39,528.78,293l-49.86,15.85,12.25,12.25,13.11,4.17,7.64-2.44,38,12.39,8.65,6.63s-13.84,15.56-11.82,18.44,5.48,13.25,5.48,13.25L552,409.87,439.3,407,422,390.27,445.93,386l45.24-23.63L526,391.13,461.2,307.56Z"/><polygon class="cls-11" points="428.73 391.81 456.98 392.96 515.38 408.71 456.21 398.92 428.73 391.81"/><path class="cls-12" d="M461.2,307.56,469,317.65l-19.59,6.91s-15,6.34-9.51,22.48l6.91,37.47L422,390.27l-18.44-10.09s-8.94-5.47-8.65-8.93l-17-35.45L405.58,345l5.48,7.49s24.49,3.74-2.88-28l3.45-6.05s22.77,5.77,15.28-8.64C426.91,309.87,455.73,304.39,461.2,307.56Z"/><path class="cls-13" d="M469,317.65s-35.16,5.19-29.39,28,8.64,39.48,8.64,39.48l42.94-22.76L524,389.12Z"/><circle class="cls-14" cx="458.9" cy="349.35" r="16.43"/><circle class="cls-5" cx="458.9" cy="349.35" r="9.85"/><path class="cls-11" d="M539.87,245.31l4,5.62-7.21,2.17-36-14.13-71.47,27.81s-5.9-2-4.32-5.47c0,0,4.32-17,9.37-19.45,0,0,35.73-27.09,54.89-21.62,0,0,20.61,4,33.87,13.12S539.87,245.31,539.87,245.31Z"/><path class="cls-15" d="M411.78,278.6c-6.24.48-34-7.2-34-7.2-2.45-.44-24.06-18.74-24.06-18.74-.14-3.74,2.16-.86,2.16-.86-.72.14,3.89,3.46,3.89,3.46C359,257,401.4,267.79,401.4,267.79L425,262.17s-.14,3.17,4.18,4.61C429.21,266.78,430.51,277.16,411.78,278.6Z"/><path class="cls-16" d="M352.41,251.37l6.2.57s-3.46-22.19-30.26-22.76-33.86-2.45-33.86-2.45l37,8.93S343.19,237.25,352.41,251.37Z"/><path class="cls-17" d="M379.07,271.83l-.5-.39-24.86-18.78s-14-18.87-26.66-18.58l-16-3.46s15.13,9.94,35.16,47.55l5.33,4.61A35.21,35.21,0,0,1,379.07,271.83Z"/><path class="cls-18" d="M344,274S326,239.26,316,234.46a24,24,0,0,0-17.1-6.15l-12.1,2.12s13.06,19.4,13.83,19.4c0,0,5.57,2.11,7.88,1Z"/><path class="cls-12" d="M301.17,249.64s6.34,1.73,7.3,1.15,15.94,10.37,15.94,10.37l-25.74,3.46s6.72,1.54,2.69,12.3c0,0-13.64-.39-13.64-1.73,0,0-23.44,12.87-23.25,14.41l-9-3.46s-9.22-.19-5.38-8.45l10.38.19,6.72-8.84s6.53-4-2.11-3.65c0,0-19.41-16.14,4.42-8.45l6.53,2.11Z"/><path class="cls-19" d="M428.54,406.6s5.76-4.42-1.73-8.65-41.3-26.51-42.07-26.7a12.92,12.92,0,0,1-2.69-1.73l-16.52-20L353.81,343l-16.72,5.76-5.57,9.8,15.37,20.94,43,12.49s7.5,2.5,7.69,6.72S428.54,406.6,428.54,406.6Z"/><path class="cls-20" d="M346.89,379.51l-15.37-20.94,5.57-9.8L270.62,299s-9,13.26-5.19,18.25S346.89,379.51,346.89,379.51Z"/><polygon class="cls-13" points="270.62 299.01 337.09 348.77 353.81 343.01 280.03 289.79 270.62 299.01"/><path class="cls-21" d="M280,289.79s-17.29,16.52-14.6,27.47l-5.38-19.21S268.51,278.84,280,289.79Z"/><path class="cls-22" d="M490,287.39,461.2,307.56s-19-2-34.29,2.31c0,0,11.81,12.68-15.28,8.64l-60.08-35.73s10.23-14.12,26.22-11.38,27,7.06,34,7.2,18.59-7.64,17.43-11.82L500.68,239l36,14.13,7.21-2.17s7.2,7.35-.29,13.4L506,273.89s-10.28,1.78-17,13.55"/><path class="cls-12" d="M429.79,291.42l19.16-5.9,17.73.43,21.61-8.36-2.88,7.93a14.21,14.21,0,0,0-11.82,3.74c-5.18,5.05-18.44,16.14-18.44,16.14l-4.9-4.47,5.19-5s5.62-4.75-2-4.32S429.79,291.42,429.79,291.42Z"/><path class="cls-5" d="M555.15,242.29s-4.76-3-10.81,10.23L491.6,277.45l66.14-23.35s5.91-1,2.16-5.62S555.15,242.29,555.15,242.29Z"/><circle class="cls-23" cx="537.28" cy="228.7" r="3.07"/><path class="cls-5" d="M550.73,222.55s3.65-7.69,10.95-1.92-4.61,19-10.76,7.87"/><path class="cls-14" d="M537.28,225.62l18.44-3.26s4.66,2.3,1,5.57l-17.48,2.88S543.24,227.54,537.28,225.62Z"/><path class="cls-9" d="M377.05,298.24l6.92,4.23s-20.75,20-19.79,19.6L396.07,309l4.23,3.08-40.92,16.71L354,325.14Z"/><path class="cls-24" d="M409.89,481.89h0Z"/><polygon class="cls-25" points="959.96 578.73 1375.94 578.73 1918.46 0 1542.99 0 959.96 578.73"/><ellipse class="cls-5" cx="1443.76" cy="401.7" rx="156.32" ry="14.25"/><ellipse class="cls-5" cx="1443.76" cy="401.7" rx="156.32" ry="14.25"/><g id="レイヤー_3" data-name="レイヤー 3"><circle class="cls-5" cx="1594.07" cy="353.37" r="63.38"/><circle class="cls-5" cx="1594.07" cy="353.37" r="44.37"/><polygon class="cls-5" points="1590.56 330.41 1600.23 330.41 1609.16 334.11 1615.98 340.94 1619.68 349.87 1619.68 359.53 1615.98 368.46 1609.16 375.29 1600.23 378.99 1590.56 378.99 1581.64 375.29 1574.81 368.46 1571.11 359.53 1571.11 349.87 1574.81 340.94 1581.64 334.11 1590.56 330.41"/><circle class="cls-5" cx="1303.16" cy="354.7" r="63.38"/><circle class="cls-5" cx="1303.16" cy="354.7" r="44.37"/><polygon class="cls-5" points="1299.65 331.74 1309.32 331.74 1318.24 335.44 1325.07 342.26 1328.77 351.19 1328.77 360.86 1325.07 369.79 1318.24 376.61 1309.32 380.31 1299.65 380.31 1290.72 376.61 1283.89 369.79 1280.2 360.86 1280.2 351.19 1283.89 342.26 1290.72 335.44 1299.65 331.74"/><path class="cls-5" d="M1347.62,189.31s-1.06,4.24-3,4.86-13.08,8.49-13.08,8.49-11.84,9.37,1.33,9.15c0,0,.53,9.5,3.49,12.06,0,0,5.44,9.11,29.3,17.24l15.91,4.42s-3.18-8,4.87-15.47c0,0-4.51.27-4-6.63,0,0-21.39-10.61-13.79-17.86a14.71,14.71,0,0,1-12.91-6.54C1350.45,191.61,1347.62,189.31,1347.62,189.31Z"/><path class="cls-5" d="M1315.89,241.37c-6.9-6.71-1.24-8.83-1.24-8.83L1333.21,212s-11.58-.36-1.68-9.37c0,0,11.67-8.84,13.08-8.49,3,.75,3.72-7.6,3.72-7.6-11.49-1.77-56.58,59.22-56.58,59.22l-.17,7.25-3.72,10.61,15.21,1.42-6.9-5.66,19.63-18"/><path class="cls-5" d="M1358.85,221.31l-62.59,128.88c-4.75,9.36,7.81,6.48,9.81,4.77l62.32-128.35S1367.33,217.6,1358.85,221.31Z"/><path class="cls-5" d="M1336.35,223.87c2.35,4.72,28.76,17.95,29.3,17.24l52,15.25c10.08.93,15.65,12.46,15.65,12.46L1397.61,274l45.88,14.59-12.2,11.53-11.14,3.58-7-2.25-35,11.4-8.89,6.24-73.68-59.72,19.63-18s0-.53-2.83-3.18.71-5.48.71-5.48l19.8-20.86S1332.84,216.82,1336.35,223.87Z"/><path class="cls-5" d="M1432.3,268.78,1396.64,274l45.87,14.58-11.27,11.27-12.06,3.85-7-2.25-35,11.4-8,6.1s12.73,14.32,10.87,17-5,12.2-5,12.2l.27,33.41L1479,378.83l15.91-15.38-22-4-41.64-21.74-32.08,26.52,59.66-76.91Z"/><polygon class="cls-5" points="1488.7 364.87 1462.71 365.93 1408.97 380.42 1463.42 371.41 1488.7 364.87"/><path class="cls-5" d="M1458.82,287.34l-7.16,9.28,18,6.37s13.79,5.83,8.75,20.68l-6.37,34.48,22.81,5.3,17-9.28s8.22-5,8-8.22l15.64-32.62L1510,321.82l-5,6.89s-22.54,3.45,2.65-25.72l-3.18-5.57s-21,5.3-14.06-8C1490.38,289.46,1463.86,284.42,1458.82,287.34Z"/><path class="cls-5" d="M1451.66,296.62s32.36,4.78,27,25.73-8,36.33-8,36.33l-39.52-20.95L1401,362.39Z"/><circle class="cls-5" cx="1460.94" cy="325.79" r="15.12"/><circle class="cls-5" cx="1460.94" cy="325.79" r="9.07"/><path class="cls-5" d="M1386.43,230.06l-3.72,5.17,6.63,2,33.15-13,65.77,25.59s5.44-1.86,4-5c0,0-4-15.65-8.62-17.9,0,0-32.89-24.93-50.52-19.89,0,0-19,3.71-31.16,12.06S1386.43,230.06,1386.43,230.06Z"/><path class="cls-5" d="M1504.3,260.69c5.74.44,31.3-6.63,31.3-6.63,2.25-.4,22.14-17.24,22.14-17.24.13-3.45-2-.79-2-.79.66.13-3.58,3.18-3.58,3.18.66,1.59-38.32,11.53-38.32,11.53l-21.75-5.17s.14,2.92-3.84,4.25C1488.26,249.82,1487.07,259.36,1504.3,260.69Z"/><path class="cls-5" d="M1558.93,235.63l-5.7.53s3.18-20.42,27.85-20.95,31.16-2.25,31.16-2.25l-34.08,8.22S1567.42,222.63,1558.93,235.63Z"/><path class="cls-5" d="M1534.4,254.46l.47-.36,22.87-17.28s12.86-17.37,24.53-17.1l14.72-3.18s-13.93,9.14-32.36,43.75l-4.9,4.24A32.41,32.41,0,0,0,1534.4,254.46Z"/><path class="cls-5" d="M1566.67,256.49s16.62-32,25.81-36.42a22,22,0,0,1,15.73-5.66l11.14,2s-12,17.85-12.73,17.85c0,0-5.12,1.95-7.25.89Z"/><path class="cls-5" d="M1606.09,234s-5.83,1.59-6.72,1.06-14.67,9.55-14.67,9.55l23.69,3.18s-6.19,1.41-2.47,11.31c0,0,12.55-.35,12.55-1.59,0,0,21.57,11.85,21.39,13.26l8.31-3.18s8.48-.18,4.95-7.78l-9.55.18-6.19-8.14s-6-3.71,1.95-3.36c0,0,17.86-14.85-4.07-7.77l-6,1.94Z"/><path class="cls-5" d="M1488.88,378.48s-5.31-4.07,1.59-8,38-24.4,38.72-24.57a12.3,12.3,0,0,0,2.47-1.59L1546.87,326l10.78-6,15.38,5.3,5.13,9L1564,353.55,1524.41,365s-6.89,2.3-7.07,6.19S1488.88,378.48,1488.88,378.48Z"/><path class="cls-5" d="M1564,353.55l14.14-19.27-5.13-9,61.17-45.79s8.31,12.2,4.78,16.8S1564,353.55,1564,353.55Z"/><polygon class="cls-5" points="1634.2 279.47 1573.03 325.26 1557.65 319.96 1625.54 270.99 1634.2 279.47"/><path class="cls-5" d="M1625.54,271s15.91,15.2,13.44,25.28l5-17.68S1636.15,260.91,1625.54,271Z"/><path class="cls-5" d="M1432.3,268.78l26.52,18.56s17.51-1.86,31.56,2.12c0,0-10.87,11.67,14.06,8l55.29-32.89s-9.42-13-24.13-10.47-24.8,6.5-31.3,6.63-17.1-7-16-10.87l-65.77-25.59-33.15,13-6.63-2s-6.63,6.76.27,12.33l34.65,8.8s9.46,1.63,15.65,12.46"/><path class="cls-5" d="M1487.73,272.49l-17.64-5.44-16.31.4-19.88-7.69,2.65,7.29a13.07,13.07,0,0,1,10.87,3.45c4.77,4.64,17,14.85,17,14.85l4.51-4.11-4.77-4.64s-5.17-4.37,1.85-4S1487.73,272.49,1487.73,272.49Z"/><path class="cls-5" d="M1372.37,227.28s4.38-2.79,10,9.41l48.53,22.94L1370,238.15s-5.43-.93-2-5.17S1372.37,227.28,1372.37,227.28Z"/><circle class="cls-5" cx="1388.81" cy="214.77" r="2.83"/><path class="cls-5" d="M1376.44,209.11s-3.36-7.07-10.08-1.77,4.24,17.5,9.9,7.25"/><path class="cls-5" d="M1388.81,211.94l-17-3s-4.29,2.12-.88,5.13l16.09,2.65S1383.33,213.71,1388.81,211.94Z"/><path class="cls-5" d="M1536.26,278.77l-6.37,3.89s19.1,18.38,18.21,18-29.34-12-29.34-12l-3.89,2.83,37.65,15.38,5-3.36Z"/></g><path class="cls-26" d="M1027.25,96.33a10.52,10.52,0,1,1,10.52-10.52A10.5,10.5,0,0,1,1027.25,96.33Z"/><path class="cls-26" d="M1058.3,96.3h-6.12v-7h6.21c4.51,0,5.61-1.18,5.61-5.09v-.71h-8.2v3.54h-7.19V76.29h7.24V74.6h8v1.69h7.34v8.27C1071.17,91.63,1068.52,96.3,1058.3,96.3Z"/><path class="cls-26" d="M1075.35,96.16V90.68h6.1V87.86c0-2-.1-2.49-.91-2.71h-5V79.71h17.3v5.44h-6a3.85,3.85,0,0,1,.49,2.3v3.23h5.62v5.48Z"/><path class="cls-26" d="M1119.49,81.3v2.21c0,9.15-6.53,13-16.78,13h-4V89.43h4.22c6.85,0,9.34-1.4,9.34-5.7V82.36h-14.43V75.6h16.53v-.78h6v2.82h-5.19v.9h5.19V81.3Z"/><path class="cls-26" d="M1143.57,84.49c-.25,7.53-3.5,11.76-12.58,11.76h-6.11v-7H1131c4.6,0,5.28-1,5.33-4.79h-6v3.89h-7.19V84.49h-1.34v-7h1.34V75h7.19v2.4h6V75h7.24v2.4h1.29v7Z"/><path class="cls-26" d="M1167.08,82a8.91,8.91,0,0,0-4.23.81V96.67h-7.14V86.81l-.89.49c-1.27.71-3.47,1.42-7.14,1.42h-1.32V81.55H1148a6.82,6.82,0,0,0,4.09-1.13l8.17-4.3a10.12,10.12,0,0,1,5.43-1.25h3.58V82Z"/><path class="cls-26" d="M1189.18,90.19a29.15,29.15,0,0,1-9.44-1.28V96.3h-7.52V74.77h7.52v5.09c0,2.32,3.81,3.13,9.44,3.13h3.06v7.2Z"/><path class="cls-26" d="M1210.56,96.57h-1.42V90.75c-.68,4.38-3.15,5.82-6.51,5.82-3.88,0-7.14-2.49-7.14-7.9V84c0-6.29,4.26-9.3,9.15-9.3h3.82c5.7,0,9.35,3.89,9.35,9.23v4C1217.81,93.46,1215.09,96.57,1210.56,96.57Zm-6.8-14.36a2.1,2.1,0,0,0-1.88,2.3V88c0,.9.41,1.1.88,1.1a1,1,0,0,0,1-1.1Zm7.39,2.37a2.07,2.07,0,0,0-1.81-2.37v6.65h.32c.93,0,1.49-.36,1.49-1.61Z"/><path class="cls-26" d="M1219.74,96.74V90.48h1.1V84.24c-.34.05-.69.07-1.08.1v-7.1c4.61-.19,6-1.37,6.78-3h9.22c.81,1.64,2.26,2.7,6.78,3v7.1q-.66,0-1.32-.12V89.4H1235v1.08h7.51v6.26Zm8.59-15a12.43,12.43,0,0,1-3.5,1.66h2.69v7h.81Zm2.84-2.54a14.31,14.31,0,0,1-1.6,1.61h3.21A14.4,14.4,0,0,1,1231.17,79.23Zm3.86,3.18V84h4.89A16.35,16.35,0,0,1,1235,82.41Z"/><path class="cls-26" d="M1258.69,80.23v.61h2v9.88h-10.25V80.84h2v-.61h-8.32V74.38H1267v5.85ZM1244.52,96.6V80.84h5.39V91.29h11.37V80.84h5.39V96.6Zm9.94-12.46h-.83v.93h.83Zm0,2.6h-.83v.9h.83Zm3.11-2.6h-.86v.93h.86Zm0,2.6h-.86v.9h.86Z"/><path class="cls-26" d="M1276.41,89.23v-7h7.34v7Z"/><path class="cls-26" d="M1312.5,96.89h-6.17V91.65h-.39v1.77c0,2.17-1,3-2.84,3h-.24v.44h-5.31V90.43H1297v6h-3.55V84.83h4.06v-.39h-4.2V81.06h-.62c.4-1.08.52-4.06.47-7h3.94V75h.41v-.88h5.19V75h2.08v4.77h-2.08v.44h2.1v4.24h-2.1v.39h2.52V74.41h4.55v15.8h.2a.22.22,0,0,0,.22-.22V74.11H1316V93.2C1316,95.4,1314.65,96.89,1312.5,96.89Zm-15-17.13h-.9c0,.27,0,.49-.07.71h1Zm4.92,10.67h-.71v1h.47c.19,0,.24-.1.24-.17Z"/><path class="cls-26" d="M1334.84,81.79v1H1340v5.33h-5.16v1H1340v5.44h-5.16v2.29h-6.34v-10h-2.89v10h-6.26V89.21a17.38,17.38,0,0,1-1.71,1.12V81.57c1.91-1.76,2.45-4.94,2.57-7.46H1327a23.51,23.51,0,0,1-2.25,9h.9v2.71a55,55,0,0,0,2.08-11.72h6.46c0,.39-.07.79-.1,1.18h6.39v6.5Z"/><path class="cls-26" d="M1027.25,139.15a10.52,10.52,0,1,1,10.52-10.52A10.49,10.49,0,0,1,1027.25,139.15Z"/><path class="cls-26" d="M1058.3,139.12h-6.12v-7h6.21c4.51,0,5.61-1.18,5.61-5.09v-.71h-8.2v3.55h-7.19V119.11h7.24v-1.69h8v1.69h7.34v8.27C1071.17,134.45,1068.52,139.12,1058.3,139.12Z"/><path class="cls-26" d="M1075.35,139V133.5h6.1v-2.82c0-2-.1-2.49-.91-2.71h-5v-5.43h17.3V128h-6a3.85,3.85,0,0,1,.49,2.3v3.23h5.62V139Z"/><path class="cls-26" d="M1119.49,124.13v2.2c0,9.15-6.53,13-16.78,13h-4v-7.1h4.22c6.85,0,9.34-1.39,9.34-5.7v-1.37h-14.43v-6.75h16.53v-.79h6v2.82h-5.19v.9h5.19v2.77Z"/><path class="cls-26" d="M1143.57,127.31c-.25,7.53-3.5,11.77-12.58,11.77h-6.11v-7H1131c4.6,0,5.28-1,5.33-4.79h-6v3.89h-7.19v-3.89h-1.34v-7h1.34v-2.4h7.19v2.4h6v-2.4h7.24v2.4h1.29v7Z"/><path class="cls-26" d="M1167.08,124.86a8.91,8.91,0,0,0-4.23.81v13.82h-7.14v-9.86l-.89.49c-1.27.71-3.47,1.42-7.14,1.42h-1.32v-7.17H1148a6.89,6.89,0,0,0,4.09-1.12l8.17-4.31a10.21,10.21,0,0,1,5.43-1.25h3.58v7.17Z"/><path class="cls-26" d="M1189.18,133a29.46,29.46,0,0,1-9.44-1.27v7.38h-7.52V117.6h7.52v5.08c0,2.33,3.81,3.14,9.44,3.14h3.06V133Z"/><path class="cls-26" d="M1196.15,139.12V132h13.65v-5.46c0-.9-.19-1.17-1.24-1.17h-12.41v-7.15h12.41c7.46,0,8.46,1.62,8.46,8.32v12.57Z"/><path class="cls-26" d="M1241.29,127.55c-1.1,8.1-5.7,11.53-14.55,11.53H1220v-6.9h5.9c6.41,0,7.63-1.91,8.27-5.14,1.18-5.85,2.59-8.1,8.22-8.76v7.85A1.46,1.46,0,0,0,1241.29,127.55Zm-21.23-2.15v-6.83h10.13v6.83Z"/><path class="cls-26" d="M1265.91,127.31c-.25,7.53-3.5,11.77-12.58,11.77h-6.11v-7h6.09c4.6,0,5.28-1,5.33-4.79h-6v3.89h-7.19v-3.89h-1.35v-7h1.35v-2.4h7.19v2.4h6v-2.4h7.24v2.4h1.3v7Z"/><path class="cls-26" d="M1268.75,139.12v-7.6c1-.25,1.32-.71,1.32-3.06V117.84h6.31v10C1276.38,135.92,1274.18,138.68,1268.75,139.12Zm16.44-13v.05c0,4.6-.91,5.48-1.2,5.48h-.29l.12-1.25V117.84h-6.46v21.28h6.09c5.78,0,8.2-4.15,8.2-13Zm6.46,0v0Z"/><path class="cls-26" d="M1311.62,131.71c-.4,4.26-2.48,7.49-9.62,7.49h-7.85v-6.78H1301c2.21,0,2.84-.46,3-1.54h-10.79v-5.26h22.92v6.09Zm-18-7.22v-6.14h22.17v6.14Z"/><path class="cls-26" d="M1336.7,127.8a7.64,7.64,0,0,0-3.45.63v11.06h-5.87v-7.88l-.72.4a12.09,12.09,0,0,1-5.87,1.14h-1.2v-5.77h1.48a5.73,5.73,0,0,0,3.32-.88l6.68-3.45a8.62,8.62,0,0,1,4.45-1h2.91v5.75Z"/><path class="cls-26" d="M1363.64,127.55c-1.1,8.1-5.7,11.53-14.56,11.53h-6.75v-6.9h5.89c6.41,0,7.64-1.91,8.27-5.14,1.17-5.85,2.59-8.1,8.22-8.76v7.85A1.44,1.44,0,0,0,1363.64,127.55Zm-21.24-2.15v-6.83h10.13v6.83Z"/><path class="cls-26" d="M1388.94,124.05V127c0,6.26-2.38,12.21-14.59,12.21H1368v-7h6.38c6.29,0,7.37-2.37,7.37-5.21v-2h-6.34a9.79,9.79,0,0,1-8.36,4.55v-7.26a3.76,3.76,0,0,0,3.47-3.62v-.54h13.11v-.51h5.95v2.76h-4.87v.93h4.87v2.76Z"/><path class="cls-26" d="M1027.25,182a10.52,10.52,0,1,1,10.52-10.52A10.49,10.49,0,0,1,1027.25,182Z"/><path class="cls-26" d="M1069.21,167.68a8.88,8.88,0,0,0-4.23.81v13.82h-7.15v-9.86l-.88.49c-1.27.71-3.47,1.42-7.14,1.42h-1.32V167.2h1.61a6.91,6.91,0,0,0,4.09-1.13l8.17-4.31a10.18,10.18,0,0,1,5.43-1.24h3.57v7.16Z"/><path class="cls-26" d="M1084.92,182h-10v-6.71h10.71c1.77,0,2.31-.44,2.31-1.29v-.44h-14.93v-5.83h22.44v5.09C1095.49,178,1093.21,182,1084.92,182Zm-11.5-15.2v-5.87H1095v5.87Z"/><path class="cls-26" d="M1110.07,179.13a24.14,24.14,0,0,1-12.5,3v-7.19c9.66,0,12.38-4.78,12.38-6.78v-.52h-11.6v-6.5h19.13v5.38a14.5,14.5,0,0,1-2.15,7.48,12.6,12.6,0,0,0,4.8.79v7.12C1114.62,181.9,1112.84,181,1110.07,179.13Z"/><path class="cls-26" d="M1140.24,175.83a29.22,29.22,0,0,1-9.44-1.27V182h-7.51V160.42h7.51v5.09c0,2.32,3.81,3.13,9.44,3.13h3.06v7.19Z"/><path class="cls-26" d="M1154.07,174.88v-7h7.34v7Z"/><path class="cls-26" d="M1170.83,182.24v-7.66c1.81-.36,2.37-1.44,2.37-3.47v-10.5h7v10.33C1180.17,177.64,1177.11,181.53,1170.83,182.24Zm20.28-15.14v4c0,2,.64,3.15,2.37,3.47v7.66c-6.26-.71-9.34-4.6-9.34-11.3V160.61h9.56v2.79h-5.06v1h5.06v2.74Z"/><path class="cls-26" d="M1214.13,170.3c-.58,7.34-4.06,11.65-13.87,11.65H1196v-7.2h4.36c4.47,0,6-1.05,6.38-4.45h-11.3v-7.19h11.4v-2.67h7.39v2.67h3.84v7.19Z"/><path class="cls-26" d="M1220.67,174.66v-7.29h21v7.29Z"/><path class="cls-26" d="M1263.56,182.53h-6.16V177.3h-.4v1.76c0,2.18-1,3-2.83,3h-.25v.44h-5.31v-6.46h-.54v6h-3.55V170.47h4.07v-.39h-4.21v-3.37h-.61a28.43,28.43,0,0,0,.47-7h3.93v.88h.42v-.88h5.18v.88h2.08v4.77h-2.08v.44h2.11v4.23h-2.11v.39h2.52V160.05h4.56v15.8h.19a.22.22,0,0,0,.22-.22V159.76H1267v19.08C1267,181,1265.71,182.53,1263.56,182.53Zm-15-17.12h-.91c0,.27,0,.49-.07.71h1Zm4.92,10.66h-.71v1h.46c.2,0,.25-.09.25-.17Z"/><path class="cls-26" d="M1285.9,167.44v1h5.16v5.34h-5.16v1h5.16v5.43h-5.16v2.3h-6.33v-10h-2.89v10h-6.27v-7.66a19.47,19.47,0,0,1-1.71,1.13v-8.76c1.91-1.76,2.45-4.94,2.57-7.46H1278a23.46,23.46,0,0,1-2.25,9h.91v2.72a55.78,55.78,0,0,0,2.08-11.72h6.46c0,.39-.08.78-.1,1.17h6.38v6.51Z"/><path class="cls-26" d="M1563.35,509.92a13.3,13.3,0,0,1,.12,1.73c0,4.11-2.64,5.83-7.7,5.83h-6.32c-.66,0-.93.36-.93.7s.27.71.93.71h14.15v6.61h-15.22c-5,0-6.78-2.42-6.78-7.32,0-4.13,3-6,7.15-6h7c.47,0,.74-.17.74-.68a.69.69,0,0,0-.74-.62h-13v-6.7h13.24a13.7,13.7,0,0,1,1.78.1v-.68h6.51v2.81h-4.89v.76h4.89v2.79Z"/><path class="cls-26" d="M1587.67,518.53a5.53,5.53,0,0,0,.91.24V526a11.12,11.12,0,0,1-5.61-3.52v2.28c-2.71,1.05-6.11,1.22-9.73,1.22v-5.75l1.15,0v-1.16a11.74,11.74,0,0,1-1.18.57V512a5.7,5.7,0,0,0,2.79-1.69h-2.76v-3.5a20.77,20.77,0,0,1-1.42,5.31h1v13.8h-5.63v-7.8a12.37,12.37,0,0,1-1.44.95V510c1.17-1.12,2-3.23,2-6.87h5.78c0,.41,0,.81,0,1.22h4.23v-1.22h6.6v1.22h4.24v6h-5.8c-.1.25-.2.47-.29.66h1.22a13.39,13.39,0,0,0,.37,3.11l.44-3.06h4.3Zm-8.17-3.28c-.32.32-.64.61-1,.9h1v3.62a11.77,11.77,0,0,0,1.39-.29A17.8,17.8,0,0,1,1579.5,515.25Z"/><path class="cls-26" d="M1598.9,524.2v1.67h-5.82V524.4a5.25,5.25,0,0,1-2.83,1.54v-7c1.34-.07,1.9-.29,2.2-.73h-1.91V509.7H1593v-.59h-2.74v-5.53H1593v-.51h6v.51h2.62v5.53H1599v.59h2.57v8.56h-2.2l2.25,1v6.6Zm-4.08-10.59H1594v.88h.86Zm3.35,0h-.85v.88h.85Zm9.93,12.28-.41-1.78h-.27a7.93,7.93,0,0,1-.37,1.78h-5.33a6.09,6.09,0,0,0,.71-1.78H1602V508.84h2.16l.07-.44H1602v-5.16h11v5.16h-3.62l0,.44h3.47v15.27h-.22l.51,1.78Zm-.1-13.06h-1.07v.71H1608Zm0,3h-1.07v.75H1608Zm0,3h-1.07v.75H1608Z"/><path class="cls-26" d="M1635.07,511.11v2.47h2.3v7h-2c-.08,3.59-1.86,5-5.68,5h-2a4.76,4.76,0,0,1-4.52-2.69v2.57H1621c-4.16,0-6-1.84-6-5.68v-16h6.7v14.07c0,.66.15.85.74.88a5.27,5.27,0,0,1,5.65-5.17h.07v-2.47h-5.52V504.7h5.52v-.9h6.88v.9h2.32v6.41Zm-5.46,7.24h-1a.74.74,0,0,0-.78.74c0,.59.3.88.83.88h.2a.8.8,0,0,0,.78-.85Z"/><path class="cls-26" d="M1654.89,523.13v-1.45a2.19,2.19,0,0,0-1.64-2.39l-.71-.32-1.81,2.08c-2.82,3.23-5.48,4.26-8.37,4.26h-2.86V518.4h.81a6,6,0,0,0,5.06-2.32l.39-.44-5.33-2.64v-7.68l10.1,5.09,3.21-3.53c2.22-2.44,4.3-3.35,8-3.35v7.1a3.37,3.37,0,0,0-3,1.32l-1.57,1.78.27.12c3.11,1.42,4.85,4,4.85,8v1.25Z"/><path class="cls-26" d="M1664.58,518v-7.29h21V518Z"/><path class="cls-26" d="M1688.19,525.31v-7.62c1-.24,1.32-.71,1.32-3.05V504h6.31v10C1695.82,522.1,1693.62,524.86,1688.19,525.31Zm16.44-13v.05c0,4.6-.9,5.48-1.2,5.48h-.29l.12-1.25V504h-6.46v21.29h6.1c5.77,0,8.19-4.17,8.19-13Zm6.46,0v0Z"/><path class="cls-26" d="M1727.61,519.36H1725c-.42,3.62-3,5.95-7.76,5.95H1713v-6.93h3.21c1.64,0,1.91-.44,1.91-1.79v-4.15h8.9a1.08,1.08,0,0,0,1.08-1.11v-.51H1713v-6.53h22.17v7.19C1735.12,516.45,1732.38,519.36,1727.61,519.36Z"/><path class="cls-26" d="M1755.23,519.19a26.14,26.14,0,0,1-9.44-1.52v7.64h-7.51V503.78h7.51v5.09c0,2.68,6,3.13,9.44,3.13h3.06v7.19Zm-2-12.63v-2.78h5.94v2.78Zm0,3.68v-2.77h5.94v2.77Z"/><path class="cls-26" d="M1780.75,519.09c-2.66,4.65-5.48,6.22-11.64,6.22H1763V503.92h6.89v14h.44c2.62,0,3.87-1,5.46-3.62,2.15-3.57,4.55-4.89,8.39-5.09v7.51A4.17,4.17,0,0,0,1780.75,519.09Z"/><path class="cls-26" d="M1798.66,522.49a24.14,24.14,0,0,1-12.5,3v-7.2c9.66,0,12.38-4.77,12.38-6.78V511H1787v-6.51h19.12v5.39a14.5,14.5,0,0,1-2.15,7.48,12.6,12.6,0,0,0,4.8.79v7.11C1803.22,525.25,1801.43,524.4,1798.66,522.49Z"/><path class="cls-26" d="M1827,524.37v-3c0-.53-.14-.85-.68-.9,0,3.2-1.25,5.06-5.07,5.06h-5.77c-3.65,0-5.07-2.22-5.07-5.21,0-3.2,2.11-4.79,5.51-4.79H1820v-.81h-8.62V510H1820v-.88h-8.62v-4.79H1820v-.81h6.87v.81h5.23v4.79h-5.23V510h5.23v4.75h-5.23v.81h.59c3.79,0,5.77,2.12,5.77,5.55v3.25Zm-7-5h-3.23a.51.51,0,0,0-.54.54.49.49,0,0,0,.54.49h2.64c.46,0,.59-.15.59-.47Z"/><path class="cls-26" d="M1853.59,510.09v1.1h-3.49c-4,0-5.56,2.47-5.56,4.82,0,1.56,1.13,2.3,3,2.3h8.71v7.19h-8.88c-7.09,0-10-3.47-10-9a8.64,8.64,0,0,1,1.93-5.31h-4.11v-7h16.56v-.41h6v2.78h-4.09v.79h4.09v2.74Z"/><path class="cls-26" d="M1873.27,519.6h-5.12l-1.44-9.36v-7.13h8v7.13Zm-6.1,6.49V520h7v6.07Z"/></g></g></svg>