<svg id="レイヤー_1" data-name="レイヤー 1" xmlns="http://www.w3.org/2000/svg" viewBox="0 0 353 270"><defs><style>.cls-1{fill:#5b71b6;}.cls-2{fill:#ba1079;}.cls-3,.cls-31,.cls-54{font-size:6.85px;}.cls-3,.cls-4,.cls-5,.cls-60{fill:#21b6b2;}.cls-3,.cls-31,.cls-32,.cls-33,.cls-4,.cls-5,.cls-54,.cls-55{font-family:VDL-LogoJrBlack-Black, VDL LogoJrBlack-Black-90ms-RKSJ-H;font-weight:800;}.cls-32,.cls-4,.cls-55{font-size:9.58px;}.cls-33,.cls-5{font-size:4.79px;}.cls-6{fill:#231815;}.cls-7{fill:#272f22;}.cls-8{fill:#6e4598;}.cls-9{fill:#372a5d;}.cls-10{fill:#62235c;}.cls-11{fill:#ea511a;}.cls-12{fill:#b3b3b4;}.cls-13{fill:#663c94;}.cls-14{fill:#1bad57;}.cls-15{fill:#31489c;}.cls-16{fill:#5b3485;}.cls-17{fill:#d43118;}.cls-18{fill:#922f22;}.cls-19{fill:#15ad64;}.cls-20{fill:#041609;}.cls-21{fill:#5e3c94;}.cls-22{fill:#353266;}.cls-23{fill:#5b798f;}.cls-24{fill:#9bc9ec;}.cls-25{fill:#7ea4c1;}.cls-26{fill:#405768;}.cls-27{fill:#f5d033;}.cls-28{fill:#2c2321;}.cls-29{fill:#575554;}.cls-30{fill:#416eb5;}.cls-31,.cls-32,.cls-33,.cls-58{fill:#e7233f;}.cls-34{fill:#6a6969;}.cls-35{fill:#d53a17;}.cls-36{fill:#f1eb34;}.cls-37{fill:#e4cc1f;}.cls-38{fill:#4e3064;}.cls-39{fill:#5c5a5a;}.cls-40{fill:#909090;}.cls-41{fill:#636262;}.cls-42{fill:#f2ec48;}.cls-43{fill:#edce46;}.cls-44{fill:#898989;}.cls-45{fill:#474342;}.cls-46{fill:#6f6e6f;}.cls-47{fill:#644498;}.cls-48{fill:#5a2969;}.cls-49{fill:#2e3631;}.cls-50{fill:#494645;}.cls-51{fill:#44403f;}.cls-52{fill:#cbcccc;}.cls-53{fill:#ebe93f;}.cls-54,.cls-55,.cls-57{fill:#0f308b;}.cls-56{fill:#eaec82;}.cls-59{fill:#bc6194;}.cls-61{fill:#514f4e;}.cls-62{fill:#545251;}.cls-63{fill:#8d8d8e;}.cls-64{fill:#9d9d9e;}.cls-65{fill:#c5e2d4;}.cls-66{fill:#4c4948;}</style></defs><polygon class="cls-1" points="173.33 210.08 250.07 210.08 350.14 103.33 280.88 103.33 173.33 210.08"/><polygon class="cls-2" points="173.59 103.16 96.86 103.16 -3.22 -3.6 66.04 -3.6 173.59 103.16"/><text class="cls-3" transform="translate(57.47 11.14)">Web Creator</text><text class="cls-4" transform="translate(36.93 23.84)">Natsume Hatakeyama</text><text class="cls-5" transform="translate(57.75 90.28)">Tel:000-0000-0000</text><text class="cls-5" transform="translate(54.46 97.18)">Mail:ababa@gmail.com</text><path class="cls-6" d="M126.3,74.77c2.44,3.35-20.23,5.58-37.31,5.58s-39.87-1.44-39.87-5.58,19.91-1.91,37-1.91S123.75,71.26,126.3,74.77Z"/><circle class="cls-7" cx="58.74" cy="65.74" r="12.7"/><circle class="cls-8" cx="58.74" cy="65.74" r="8.89"/><polygon class="cls-9" points="59.44 61.14 57.51 61.14 55.72 61.88 54.35 63.25 53.61 65.04 53.61 66.97 54.35 68.76 55.72 70.13 57.51 70.87 59.44 70.87 61.23 70.13 62.6 68.76 63.34 66.97 63.34 65.04 62.6 63.25 61.23 61.88 59.44 61.14"/><circle class="cls-7" cx="117.06" cy="66.01" r="12.7"/><circle class="cls-8" cx="117.06" cy="66.01" r="8.89"/><polygon class="cls-9" points="117.76 61.4 115.82 61.4 114.03 62.14 112.66 63.51 111.92 65.3 111.92 67.24 112.66 69.03 114.03 70.4 115.82 71.14 117.76 71.14 119.55 70.4 120.92 69.03 121.66 67.24 121.66 65.3 120.92 63.51 119.55 62.14 117.76 61.4"/><path class="cls-10" d="M108.14,32.85s.22.85.61,1a28.89,28.89,0,0,1,2.62,1.7s2.37,1.88-.27,1.83c0,0-.1,1.91-.7,2.42,0,0-1.09,1.83-5.87,3.46l-3.19.88a2.89,2.89,0,0,0-1-3.1s.91,0,.8-1.33c0,0,4.29-2.12,2.77-3.58a2.93,2.93,0,0,0,2.58-1.31A11.38,11.38,0,0,1,108.14,32.85Z"/><path class="cls-11" d="M114.51,43.29c1.38-1.35.24-1.77.24-1.77L111,37.41s2.32-.08.34-1.88a15.41,15.41,0,0,0-2.62-1.7c-.6.15-.75-1.53-.75-1.53,2.31-.35,11.34,11.87,11.34,11.87l0,1.46.74,2.12-3.05.29,1.39-1.14-3.94-3.61"/><path class="cls-12" d="M105.89,39.27,118.44,65.1c1,1.88-1.57,1.3-2,1L104,40.33A1.26,1.26,0,0,1,105.89,39.27Z"/><path class="cls-13" d="M110.4,39.78c-.47.95-5.76,3.6-5.87,3.46l-10.42,3c-2,.19-3.14,2.5-3.14,2.5l7.15,1-9.19,2.92,2.44,2.31,2.23.72L95,55.33l7,2.28,1.78,1.25,14.77-12-3.93-3.61s0-.11.56-.64-.14-1.1-.14-1.1l-4-4.18A5.82,5.82,0,0,1,110.4,39.78Z"/><path class="cls-14" d="M91.17,48.78l7.15,1-9.2,2.92L91.38,55l2.42.77,1.41-.45,7,2.29,1.59,1.22s-2.55,2.87-2.18,3.4a16.21,16.21,0,0,1,1,2.45l-.05,6.69-20.79-.53-3.19-3.08L83,67l8.34-4.36,6.43,5.32-12-15.42Z"/><polygon class="cls-15" points="79.86 68.04 85.07 68.26 95.85 71.16 84.93 69.35 79.86 68.04"/><path class="cls-16" d="M85.85,52.5l1.44,1.86-3.62,1.28a3.25,3.25,0,0,0-1.75,4.15l1.27,6.91-4.57,1.06-3.4-1.86s-1.65-1-1.59-1.65l-3.14-6.54,5.1,1.7,1,1.39s4.52.69-.53-5.16l.64-1.12s4.2,1.07,2.82-1.59C79.53,52.93,84.84,51.92,85.85,52.5Z"/><path class="cls-13" d="M87.29,54.36s-6.49,1-5.42,5.16,1.59,7.28,1.59,7.28l7.92-4.2,6.06,4.95Z"/><circle class="cls-17" cx="85.43" cy="60.21" r="3.03"/><circle class="cls-18" cx="85.43" cy="60.21" r="1.82"/><path class="cls-19" d="M100.36,41l.75,1-1.33.4-6.64-2.61L80,45s-1.09-.37-.8-1c0,0,.8-3.14,1.73-3.59,0,0,6.59-5,10.13-4a20,20,0,0,1,6.25,2.41C99.7,40.49,100.36,41,100.36,41Z"/><path class="cls-20" d="M76.74,47.16c-1.15.09-6.28-1.33-6.28-1.33A49.39,49.39,0,0,1,66,42.38c0-.7.4-.16.4-.16s.72.63.72.63c-.13.32,7.68,2.32,7.68,2.32l4.36-1s0,.59.77.85C80,45,80.19,46.89,76.74,47.16Z"/><path class="cls-14" d="M65.79,42.14l1.14.1s-.64-4.09-5.58-4.2a33.35,33.35,0,0,1-6.25-.45l6.83,1.65A6.11,6.11,0,0,1,65.79,42.14Z"/><path class="cls-21" d="M70.7,45.91l-.09-.07L66,42.38S63.45,38.89,61.11,39l-3-.64s2.79,1.83,6.48,8.77l1,.85A6.5,6.5,0,0,1,70.7,45.91Z"/><path class="cls-22" d="M64.23,46.32S60.9,39.9,59.06,39a4.43,4.43,0,0,0-3.15-1.14l-2.24.39s2.41,3.58,2.56,3.58,1,.39,1.45.18Z"/><path class="cls-23" d="M56.33,41.82a4.55,4.55,0,0,0,1.35.21,21.56,21.56,0,0,1,2.94,1.91l-4.75.64s1.24.29.5,2.27c0,0-2.52-.07-2.52-.32,0,0-4.32,2.38-4.29,2.66l-1.66-.64s-1.7,0-1-1.56l1.92,0,1.24-1.63s1.2-.75-.39-.68c0,0-3.58-3,.81-1.56l1.21.39Z"/><path class="cls-24" d="M79.83,70.77s1.06-.81-.32-1.59-7.62-4.89-7.76-4.93a2.28,2.28,0,0,1-.5-.32l-3-3.68L66,59,63,60.1l-1,1.81,2.84,3.86,7.93,2.31s1.39.46,1.42,1.24S79.83,70.77,79.83,70.77Z"/><path class="cls-23" d="M64.77,65.77l-2.84-3.86,1-1.81L50.7,50.93s-1.67,2.44-1,3.36S64.77,65.77,64.77,65.77Z"/><polygon class="cls-25" points="50.7 50.93 62.96 60.1 66.04 59.04 52.43 49.23 50.7 50.93"/><path class="cls-26" d="M52.43,49.22s-3.19,3.05-2.69,5.07l-1-3.54S50.31,47.2,52.43,49.22Z"/><path class="cls-13" d="M91.17,48.78,85.85,52.5a19.64,19.64,0,0,0-6.32.43s2.18,2.34-2.82,1.59L65.63,47.93a5.33,5.33,0,0,1,4.83-2.1c3,.51,5,1.3,6.28,1.33S80.16,45.75,80,45l13.19-5.13,6.64,2.61,1.33-.4a1.63,1.63,0,0,1,0,2.47l-7,1.76A5,5,0,0,0,91,48.79"/><path class="cls-27" d="M80.06,49.53l3.53-1.09,3.27.08,4-1.55-.53,1.47a2.62,2.62,0,0,0-2.18.69c-1,.93-3.4,3-3.4,3l-.91-.82,1-.93s1-.88-.37-.8S80.06,49.53,80.06,49.53Z"/><path class="cls-11" d="M103.18,40.46s-.87-.56-2,1.89L91.46,47l12.2-4.31s1.09-.18.4-1S103.18,40.46,103.18,40.46Z"/><circle class="cls-27" cx="99.89" cy="37.95" r="0.57"/><path class="cls-28" d="M102.37,36.82a1.22,1.22,0,0,1,2-.35c1.34,1.06-.85,3.5-2,1.45"/><path class="cls-29" d="M99.89,37.39l3.4-.6s.86.42.18,1l-3.23.53S101,37.74,99.89,37.39Z"/><path class="cls-12" d="M70.33,50.78l1.28.78S67.78,55.25,68,55.18l5.88-2.41.78.57-7.55,3.08-1-.67Z"/><polygon class="cls-30" points="173.59 210.13 96.86 210.13 -3.22 103.38 66.04 103.38 173.59 210.13"/><text class="cls-31" transform="translate(56.07 118.11)">Web Creator</text><text class="cls-32" transform="translate(34.26 131.83)">Natsume Hatakeyama</text><text class="cls-33" transform="translate(56.35 197.26)">Tel:000-0000-0000</text><text class="cls-33" transform="translate(53.07 204.16)">Mail:ababa@gmail.com</text><path class="cls-6" d="M124.91,181.75c2.43,3.35-20.23,5.58-37.32,5.58s-39.87-1.44-39.87-5.58,19.91-1.92,37-1.92S122.35,178.24,124.91,181.75Z"/><circle class="cls-6" cx="57.34" cy="172.71" r="12.7"/><circle class="cls-34" cx="57.34" cy="172.71" r="8.89"/><polygon class="cls-6" points="58.05 168.11 56.11 168.11 54.32 168.85 52.95 170.22 52.21 172.01 52.21 173.95 52.95 175.74 54.32 177.11 56.11 177.85 58.05 177.85 59.84 177.11 61.2 175.74 61.95 173.95 61.95 172.01 61.2 170.22 59.84 168.85 58.05 168.11"/><circle class="cls-6" cx="115.66" cy="172.98" r="12.7"/><circle class="cls-34" cx="115.66" cy="172.98" r="8.89"/><polygon class="cls-6" points="116.36 168.38 114.42 168.38 112.63 169.12 111.27 170.49 110.52 172.28 110.52 174.22 111.27 176 112.63 177.37 114.42 178.12 116.36 178.12 118.15 177.37 119.52 176 120.26 174.22 120.26 172.28 119.52 170.49 118.15 169.12 116.36 168.38"/><path class="cls-34" d="M106.75,139.83s.21.85.6,1a31.23,31.23,0,0,1,2.62,1.7s2.37,1.88-.27,1.84c0,0-.1,1.9-.7,2.42,0,0-1.09,1.82-5.87,3.45l-3.19.89a2.9,2.9,0,0,0-1-3.1s.9.05.79-1.33c0,0,4.29-2.13,2.77-3.58a3,3,0,0,0,2.59-1.31A10.8,10.8,0,0,1,106.75,139.83Z"/><path class="cls-35" d="M113.11,150.26c1.38-1.34.24-1.77.24-1.77l-3.72-4.11s2.33-.07.34-1.88a15.41,15.41,0,0,0-2.62-1.7c-.6.15-.75-1.52-.75-1.52,2.31-.36,11.34,11.87,11.34,11.87l0,1.45.74,2.13-3,.28,1.38-1.13-3.94-3.62"/><path class="cls-12" d="M104.5,146.24,117,172.08c.95,1.87-1.56,1.29-2,.95L102.58,147.3A1.27,1.27,0,0,1,104.5,146.24Z"/><path class="cls-36" d="M109,146.76c-.47.94-5.76,3.59-5.87,3.45l-10.42,3.06c-2,.18-3.13,2.5-3.13,2.5l7.15,1-9.2,2.93L90,162l2.24.72,1.41-.46,7,2.29,1.78,1.25,14.77-12-3.93-3.62s0-.1.57-.63-.15-1.1-.15-1.1l-4-4.18A5.85,5.85,0,0,1,109,146.76Z"/><path class="cls-37" d="M89.77,155.76l7.15,1-9.2,2.93L90,162l2.42.77,1.41-.45,7,2.28,1.59,1.22s-2.55,2.87-2.18,3.41a16.19,16.19,0,0,1,1,2.44l0,6.7-20.79-.53-3.19-3.09,4.42-.79L90,169.58l6.43,5.31-12-15.41Z"/><polygon class="cls-38" points="78.47 175.02 83.67 175.23 94.45 178.14 83.53 176.33 78.47 175.02"/><path class="cls-39" d="M84.45,159.48l1.44,1.86-3.62,1.27a3.25,3.25,0,0,0-1.75,4.15l1.28,6.91-4.58,1.06-3.4-1.86s-1.65-1-1.59-1.64l-3.14-6.54,5.1,1.7,1,1.38s4.52.69-.53-5.16l.64-1.11s4.2,1.06,2.82-1.6C78.13,159.9,83.44,158.89,84.45,159.48Z"/><path class="cls-34" d="M85.89,161.34s-6.49,1-5.42,5.16,1.59,7.28,1.59,7.28l7.92-4.2L96,174.52Z"/><circle class="cls-40" cx="84.03" cy="167.19" r="3.03"/><circle class="cls-41" cx="84.03" cy="167.19" r="1.82"/><path class="cls-42" d="M99,148l.74,1-1.33.4-6.64-2.6L78.55,152s-1.09-.38-.79-1c0,0,.79-3.14,1.72-3.59,0,0,6.6-5,10.13-4a20.09,20.09,0,0,1,6.25,2.42C98.3,147.46,99,148,99,148Z"/><path class="cls-20" d="M75.34,154.14c-1.15.08-6.28-1.33-6.28-1.33a49.13,49.13,0,0,1-4.43-3.46c0-.69.39-.16.39-.16s.72.64.72.64c-.13.32,7.68,2.31,7.68,2.31l4.36-1s0,.58.77.85C78.55,152,78.79,153.87,75.34,154.14Z"/><path class="cls-20" d="M64.39,149.11l1.14.11s-.64-4.09-5.58-4.2a34.69,34.69,0,0,1-6.25-.45l6.83,1.64A6.13,6.13,0,0,1,64.39,149.11Z"/><path class="cls-43" d="M69.3,152.89l-.09-.07-4.58-3.47s-2.58-3.48-4.92-3.43l-3-.64s2.79,1.84,6.48,8.78l1,.85A6.46,6.46,0,0,1,69.3,152.89Z"/><path class="cls-35" d="M62.84,153.29s-3.34-6.41-5.18-7.3a4.4,4.4,0,0,0-3.15-1.13l-2.23.39s2.41,3.58,2.55,3.58,1,.39,1.45.18Z"/><path class="cls-29" d="M54.93,148.79a4.87,4.87,0,0,0,1.35.22,21.56,21.56,0,0,1,2.94,1.91l-4.75.64s1.24.28.5,2.27c0,0-2.52-.08-2.52-.32,0,0-4.32,2.37-4.29,2.65l-1.66-.63s-1.7,0-1-1.56l1.91,0,1.24-1.63s1.21-.74-.39-.67c0,0-3.58-3,.82-1.56l1.2.39Z"/><path class="cls-44" d="M78.43,177.75s1.06-.82-.32-1.6-7.62-4.89-7.76-4.92a2.73,2.73,0,0,1-.5-.32l-3-3.69L64.64,166l-3.08,1.06-1,1.81,2.84,3.86,7.94,2.3s1.38.46,1.41,1.24S78.43,177.75,78.43,177.75Z"/><path class="cls-45" d="M63.37,172.75l-2.84-3.86,1-1.81L49.3,157.9s-1.67,2.45-1,3.37S63.37,172.75,63.37,172.75Z"/><polygon class="cls-46" points="49.3 157.9 61.56 167.08 64.64 166.02 51.03 156.2 49.3 157.9"/><path class="cls-6" d="M51,156.2s-3.18,3.05-2.69,5.07l-1-3.55S48.91,154.18,51,156.2Z"/><path class="cls-42" d="M89.77,155.76l-5.32,3.72a19.82,19.82,0,0,0-6.32.42s2.18,2.34-2.82,1.6l-11.08-6.59s1.88-2.61,4.83-2.1,5,1.3,6.28,1.33,3.43-1.41,3.21-2.18l13.19-5.13,6.64,2.6,1.33-.4a1.63,1.63,0,0,1,0,2.47l-7,1.77a5,5,0,0,0-3.13,2.5"/><path class="cls-47" d="M78.66,156.5l3.53-1.09,3.27.08,4-1.54-.53,1.46a2.62,2.62,0,0,0-2.18.69c-1,.93-3.4,3-3.4,3l-.91-.82,1-.93s1-.88-.37-.8S78.66,156.5,78.66,156.5Z"/><path class="cls-48" d="M101.78,147.44s-.87-.56-2,1.88l-9.73,4.6,12.2-4.3s1.09-.19.4-1S101.78,147.44,101.78,147.44Z"/><circle class="cls-49" cx="98.49" cy="144.93" r="0.57"/><path class="cls-50" d="M101,143.8a1.22,1.22,0,0,1,2-.36c1.35,1.06-.85,3.51-2,1.45"/><path class="cls-51" d="M98.49,144.36l3.4-.6s.86.43.18,1l-3.23.53S99.59,144.72,98.49,144.36Z"/><path class="cls-52" d="M68.93,157.76l1.28.78s-3.83,3.68-3.65,3.61l5.88-2.41.78.57-7.55,3.08-1-.67Z"/><polygon class="cls-53" points="173.3 316.41 96.56 316.41 -3.51 209.65 65.75 209.65 173.3 316.41"/><text class="cls-54" transform="translate(55.8 224.39)">Web Creator</text><text class="cls-55" transform="translate(39.35 242.71)">Natsume Hatakeyama</text><polygon class="cls-56" points="173.82 316.41 250.56 316.41 350.63 209.65 281.37 209.65 173.82 316.41"/><g id="レイヤー_3" data-name="レイヤー 3"><circle class="cls-6" cx="285.98" cy="275.21" r="11.69"/><circle class="cls-6" cx="285.98" cy="275.21" r="8.18"/><circle class="cls-6" cx="232.32" cy="275.45" r="11.69"/><circle class="cls-6" cx="232.32" cy="275.45" r="8.18"/><path class="cls-6" d="M240.52,245s-.2.78-.56.89-2.41,1.57-2.41,1.57-2.18,1.73.25,1.69c0,0,.09,1.75.64,2.22,0,0,1,1.68,5.4,3.18l2.94.82a2.67,2.67,0,0,1,.9-2.86s-.83,0-.74-1.22c0,0-3.94-2-2.54-3.29a2.72,2.72,0,0,1-2.38-1.21A10.05,10.05,0,0,0,240.52,245Z"/><path class="cls-6" d="M234.66,254.55c-1.27-1.24-.22-1.63-.22-1.63l3.42-3.78s-2.14-.07-.31-1.73a14.35,14.35,0,0,1,2.41-1.57c.56.14.69-1.4.69-1.4-2.12-.33-10.44,10.93-10.44,10.93l0,1.33-.68,2,2.8.26-1.27-1,3.62-3.33"/><path class="cls-6" d="M242.59,250.85,231,274.62c-.87,1.73,1.44,1.2,1.81.88l11.5-23.67A1.17,1.17,0,0,0,242.59,250.85Z"/><path class="cls-6" d="M238.44,251.32c.43.87,5.3,3.31,5.4,3.18l9.59,2.81c1.86.18,2.89,2.3,2.89,2.3l-6.58,1,8.46,2.69L256,265.39l-2,.66-1.3-.42-6.46,2.1-1.63,1.15-13.6-11,3.62-3.33s0-.1-.52-.59.13-1,.13-1l3.66-3.84A5.36,5.36,0,0,0,238.44,251.32Z"/><path class="cls-6" d="M256.14,259.61l-6.58.95,8.46,2.69-2.08,2.08-2.22.71-1.3-.42L246,267.73l-1.46,1.12s2.35,2.64,2,3.13a15.08,15.08,0,0,0-.93,2.25l.05,6.17,19.13-.49,2.93-2.84-4.06-.73-7.68-4-5.92,4.9L261,263Z"/><path class="cls-6" d="M261,263l-1.32,1.71,3.33,1.18a3,3,0,0,1,1.61,3.81l-1.17,6.36,4.2,1,3.13-1.71s1.52-.93,1.47-1.52l2.89-6-4.7,1.57-.93,1.27s-4.15.64.49-4.74l-.58-1s-3.87,1-2.6-1.47C266.85,263.42,262,262.49,261,263Z"/><path class="cls-6" d="M259.71,264.74s6,.88,5,4.75-1.47,6.7-1.47,6.7l-7.29-3.87-5.57,4.55Z"/><circle class="cls-6" cx="261.42" cy="270.12" r="2.79"/><circle class="cls-6" cx="261.42" cy="270.12" r="1.67"/><path class="cls-6" d="M247.68,252.46l-.69,1,1.22.36,6.12-2.39,12.13,4.72s1-.35.74-.93c0,0-.74-2.89-1.59-3.3,0,0-6.07-4.6-9.32-3.67a18.26,18.26,0,0,0-5.75,2.22C248.29,252,247.68,252.46,247.68,252.46Z"/><path class="cls-6" d="M269.42,258.11a38.37,38.37,0,0,0,5.77-1.22,44.08,44.08,0,0,0,4.09-3.18c0-.64-.37-.15-.37-.15s-.66.59-.66.59c.12.29-7.07,2.13-7.07,2.13l-4-1s0,.54-.71.79C266.46,256.11,266.24,257.87,269.42,258.11Z"/><path class="cls-6" d="M279.5,253.49l-1.05.1s.58-3.77,5.13-3.87a30.9,30.9,0,0,0,5.75-.41L283,250.82A5.59,5.59,0,0,0,279.5,253.49Z"/><path class="cls-6" d="M275,257l.09-.06,4.22-3.19s2.37-3.2,4.52-3.15l2.72-.59s-2.57,1.69-6,8.07l-.91.78A6,6,0,0,0,275,257Z"/><path class="cls-6" d="M280.92,257.34s3.07-5.9,4.77-6.72a4.05,4.05,0,0,1,2.9-1l2.05.36s-2.21,3.29-2.35,3.29-.94.36-1.33.16Z"/><path class="cls-6" d="M288.2,253.2a4.25,4.25,0,0,1-1.24.19,19.75,19.75,0,0,0-2.71,1.76l4.37.59s-1.14.26-.46,2.09c0,0,2.32-.07,2.32-.3,0,0,4,2.19,3.95,2.45l1.53-.59s1.56,0,.91-1.43l-1.76,0-1.14-1.5s-1.11-.68.36-.62c0,0,3.29-2.74-.75-1.43l-1.11.35Z"/><path class="cls-6" d="M266.58,279.84s-1-.75.29-1.47,7-4.5,7.14-4.53a2.18,2.18,0,0,0,.46-.29l2.8-3.39,2-1.11,2.84,1,.94,1.67-2.6,3.55-7.31,2.12s-1.27.43-1.3,1.14S266.58,279.84,266.58,279.84Z"/><path class="cls-6" d="M280.44,275.24l2.6-3.55L282.1,270l11.28-8.44s1.54,2.25.88,3.1S280.44,275.24,280.44,275.24Z"/><polygon class="cls-6" points="293.38 261.58 282.1 270.02 279.26 269.05 291.78 260.01 293.38 261.58"/><path class="cls-6" d="M291.78,260s2.94,2.81,2.48,4.67l.92-3.27S293.74,258.15,291.78,260Z"/><path class="cls-6" d="M256.14,259.61,261,263a18.22,18.22,0,0,1,5.82.39s-2,2.15,2.6,1.47l10.19-6.07a4.91,4.91,0,0,0-4.45-1.93c-2.71.46-4.57,1.2-5.77,1.22s-3.15-1.29-3-2l-12.13-4.72-6.12,2.39-1.22-.36a1.5,1.5,0,0,0,0,2.27l6.39,1.62a4.59,4.59,0,0,1,2.89,2.3"/><path class="cls-6" d="M266.36,260.29l-3.25-1-3,.07-3.67-1.42.49,1.35a2.43,2.43,0,0,1,2,.63c.88.86,3.13,2.74,3.13,2.74l.83-.76-.88-.85s-.95-.81.34-.74S266.36,260.29,266.36,260.29Z"/><path class="cls-6" d="M245.08,252s.81-.51,1.84,1.74l9,4.23-11.23-4s-1-.17-.36-.95S245.08,252,245.08,252Z"/><circle class="cls-6" cx="248.12" cy="249.64" r="0.52"/><path class="cls-6" d="M245.83,248.6a1.12,1.12,0,0,0-1.85-.33c-1.24,1,.78,3.23,1.82,1.34"/><path class="cls-6" d="M248.12,249.12l-3.13-.55s-.79.39-.17.94l3,.49S247.11,249.45,248.12,249.12Z"/><path class="cls-6" d="M275.32,261.45l-1.18.72s3.52,3.39,3.36,3.32l-5.41-2.22-.72.53,6.95,2.83.91-.62Z"/></g><path class="cls-57" d="M181.3,219.92a1.94,1.94,0,1,1,1.95-1.94A1.94,1.94,0,0,1,181.3,219.92Z"/><path class="cls-57" d="M187,219.92H185.9v-1.29h1.15c.83,0,1-.22,1-.94v-.13h-1.51v.65h-1.33v-2h1.34v-.31h1.47v.31h1.36v1.52C189.41,219.06,188.92,219.92,187,219.92Z"/><path class="cls-57" d="M190.18,219.89v-1h1.12v-.52c0-.36,0-.46-.17-.5h-.92v-1h3.19v1h-1.11a.67.67,0,0,1,.1.43v.59h1v1Z"/><path class="cls-57" d="M198.32,217.15v.41c0,1.69-1.2,2.4-3.1,2.4h-.74v-1.31h.78c1.26,0,1.72-.26,1.72-1.05v-.25h-2.66V216.1h3.05V216h1.1v.52h-1v.16h1v.51Z"/><path class="cls-57" d="M202.76,217.74c0,1.39-.64,2.17-2.32,2.17h-1.13v-1.28h1.13c.85,0,1-.19,1-.89h-1.1v.72H199v-.72h-.24v-1.3H199V216h1.33v.44h1.11V216h1.33v.44H203v1.3Z"/><path class="cls-57" d="M207.1,217.29a1.65,1.65,0,0,0-.78.15V220H205v-1.82l-.16.09a2.74,2.74,0,0,1-1.32.26h-.24V217.2h.29a1.26,1.26,0,0,0,.76-.21l1.51-.79a1.83,1.83,0,0,1,1-.23h.66v1.32Z"/><path class="cls-57" d="M211.17,218.79a5.39,5.39,0,0,1-1.74-.23v1.36h-1.38v-4h1.38v.94c0,.43.71.58,1.74.58h.57v1.32Z"/><path class="cls-57" d="M215.12,220h-.26V218.9a1.1,1.1,0,0,1-1.2,1.07,1.29,1.29,0,0,1-1.32-1.46v-.86a1.59,1.59,0,0,1,1.69-1.71h.7a1.64,1.64,0,0,1,1.73,1.7v.74C216.46,219.4,216,220,215.12,220Zm-1.25-2.65a.39.39,0,0,0-.35.43v.63c0,.17.07.2.16.2a.18.18,0,0,0,.19-.2Zm1.36.44a.38.38,0,0,0-.34-.44v1.23H215c.17,0,.28-.07.28-.3Z"/><path class="cls-57" d="M216.81,220v-1.15H217V217.7h-.2V216.4c.85,0,1.1-.25,1.25-.55h1.7c.15.3.41.5,1.25.55v1.31l-.25,0v1h-1.14v.2H221V220Zm1.59-2.76a2.6,2.6,0,0,1-.65.31h.5v1.3h.15Zm.52-.47a2.76,2.76,0,0,1-.29.3h.59A2.83,2.83,0,0,1,218.92,216.77Zm.71.59v.29h.91A2.7,2.7,0,0,1,219.63,217.36Z"/><path class="cls-57" d="M224,217v.11h.37v1.82h-1.89v-1.82h.38V217h-1.54v-1.08h4.21V217Zm-2.62,3v-2.9h1V219h2.1v-1.92h1V220Zm1.84-2.29h-.16v.17h.16Zm0,.48h-.16v.16h.16Zm.57-.48h-.16v.17h.16Zm0,.48h-.16v.16h.16Z"/><path class="cls-57" d="M227.27,218.62v-1.3h1.35v1.3Z"/><path class="cls-57" d="M233.92,220h-1.13v-1h-.08v.33c0,.4-.18.56-.52.56h-.05V220h-1v-1.19h-.1V220h-.66V217.8h.75v-.07h-.78v-.62h-.11a5.16,5.16,0,0,0,.09-1.28h.72V216h.08v-.16h1V216h.38v.88h-.38V217h.39v.78h-.39v.07h.46v-1.92h.84v2.92h0a0,0,0,0,0,0,0v-2.93h1.06v3.52A.62.62,0,0,1,233.92,220Zm-2.76-3.16H231a.53.53,0,0,1,0,.13h.18Zm.91,2h-.13V219H232s0,0,0,0Z"/><path class="cls-57" d="M238,217.24v.19h1v1h-1v.19h1v1h-1V220h-1.16v-1.83h-.54V220h-1.15v-1.41a3.53,3.53,0,0,1-.32.21V217.2a2,2,0,0,0,.47-1.37h1.25a4.45,4.45,0,0,1-.41,1.66h.16v.5a10.11,10.11,0,0,0,.39-2.16h1.19a1.49,1.49,0,0,0,0,.21h1.18v1.2Z"/><path class="cls-57" d="M181.3,227.82a1.94,1.94,0,1,1,1.95-1.94A1.94,1.94,0,0,1,181.3,227.82Z"/><path class="cls-57" d="M187,227.82H185.9v-1.29h1.15c.83,0,1-.22,1-.94v-.13h-1.51v.65h-1.33v-2h1.34v-.31h1.47v.31h1.36v1.52C189.41,227,188.92,227.82,187,227.82Z"/><path class="cls-57" d="M190.18,227.79v-1h1.12v-.52c0-.36,0-.46-.17-.5h-.92v-1h3.19v1h-1.11a.67.67,0,0,1,.1.43v.59h1v1Z"/><path class="cls-57" d="M198.32,225.05v.41c0,1.69-1.2,2.4-3.1,2.4h-.74v-1.31h.78c1.26,0,1.72-.26,1.72-1.05v-.25h-2.66V224h3.05v-.14h1.1v.52h-1v.16h1v.51Z"/><path class="cls-57" d="M202.76,225.64c0,1.39-.64,2.17-2.32,2.17h-1.13v-1.29h1.13c.85,0,1-.18,1-.88h-1.1v.72H199v-.72h-.24v-1.3H199v-.44h1.33v.44h1.11v-.44h1.33v.44H203v1.3Z"/><path class="cls-57" d="M207.1,225.19a1.65,1.65,0,0,0-.78.15v2.55H205v-1.82l-.16.09a2.74,2.74,0,0,1-1.32.26h-.24V225.1h.29a1.33,1.33,0,0,0,.76-.21l1.51-.79a1.83,1.83,0,0,1,1-.23h.66v1.32Z"/><path class="cls-57" d="M211.17,226.69a5.68,5.68,0,0,1-1.74-.23v1.36h-1.38v-4h1.38v.94c0,.43.71.57,1.74.57h.57v1.33Z"/><path class="cls-57" d="M212.46,227.82v-1.31H215v-1c0-.17,0-.22-.23-.22h-2.29V224h2.29c1.38,0,1.56.29,1.56,1.53v2.32Z"/><path class="cls-57" d="M220.79,225.68c-.2,1.5-1,2.13-2.69,2.13h-1.24v-1.27H218c1.18,0,1.4-.35,1.52-.95.22-1.08.48-1.49,1.52-1.62v1.45A.27.27,0,0,0,220.79,225.68Zm-3.92-.39V224h1.87v1.26Z"/><path class="cls-57" d="M225.33,225.64c-.05,1.39-.65,2.17-2.32,2.17h-1.13v-1.29H223c.84,0,1-.18,1-.88h-1.1v.72h-1.33v-.72h-.25v-1.3h.25v-.44h1.33v.44H224v-.44h1.34v.44h.24v1.3Z"/><path class="cls-57" d="M225.85,227.82v-1.4c.18,0,.25-.13.25-.57v-2h1.16v1.84C227.26,227.23,226.85,227.74,225.85,227.82Zm3-2.4h0c0,.85-.17,1-.23,1h0l0-.23v-2.32h-1.19v3.93h1.13c1.06,0,1.51-.77,1.51-2.4Zm1.19,0h0Z"/><path class="cls-57" d="M233.76,226.45c-.07.79-.46,1.38-1.77,1.38h-1.45v-1.25h1.27c.4,0,.52-.08.55-.28h-2v-1h4.23v1.12Zm-3.33-1.33V224h4.09v1.13Z"/><path class="cls-57" d="M238.39,225.73a1.33,1.33,0,0,0-.64.12v2h-1.08v-1.46l-.13.08a2.38,2.38,0,0,1-1.09.21h-.22v-1.07h.27a1.08,1.08,0,0,0,.62-.16l1.23-.64a1.6,1.6,0,0,1,.82-.18h.54v1.06Z"/><path class="cls-57" d="M243.36,225.68c-.21,1.5-1.06,2.13-2.69,2.13h-1.24v-1.27h1.08c1.19,0,1.41-.35,1.53-.95.21-1.08.48-1.49,1.51-1.62v1.45A.26.26,0,0,0,243.36,225.68Zm-3.92-.39V224h1.87v1.26Z"/><path class="cls-57" d="M248,225v.54c0,1.16-.43,2.25-2.69,2.25h-1.17v-1.29h1.18c1.16,0,1.36-.44,1.36-1v-.37h-1.17a1.81,1.81,0,0,1-1.54.84v-1.34a.69.69,0,0,0,.64-.67v-.1h2.42v-.09h1.09v.51h-.89v.17h.89V225Z"/><path class="cls-57" d="M181.3,235.72a1.94,1.94,0,1,1,1.95-1.94A1.94,1.94,0,0,1,181.3,235.72Z"/><path class="cls-57" d="M189,233.09a1.68,1.68,0,0,0-.78.15v2.55H187V234l-.17.09a2.69,2.69,0,0,1-1.31.26h-.25V233h.3a1.28,1.28,0,0,0,.75-.21l1.51-.79a1.85,1.85,0,0,1,1-.23h.66v1.32Z"/><path class="cls-57" d="M191.94,235.72h-1.83v-1.24h2c.33,0,.43-.08.43-.24v-.08h-2.76v-1.07h4.14V234C193.89,235,193.47,235.72,191.94,235.72Zm-2.12-2.8v-1.09h4v1.09Z"/><path class="cls-57" d="M196.58,235.2a4.46,4.46,0,0,1-2.3.55v-1.33c1.78,0,2.28-.88,2.28-1.25v-.09h-2.14v-1.2H198v1a2.68,2.68,0,0,1-.4,1.38,2.25,2.25,0,0,0,.89.15v1.31A2.65,2.65,0,0,1,196.58,235.2Z"/><path class="cls-57" d="M202.15,234.59a5.59,5.59,0,0,1-1.74-.23v1.36H199v-4h1.39v.94c0,.42.7.57,1.74.57h.56v1.33Z"/><path class="cls-57" d="M204.7,234.41v-1.29h1.35v1.29Z"/><path class="cls-57" d="M207.79,235.77v-1.41c.33-.07.44-.27.44-.64v-1.94h1.28v1.91A1.82,1.82,0,0,1,207.79,235.77Zm3.74-2.79v.74c0,.37.12.58.44.64v1.41a1.83,1.83,0,0,1-1.73-2.08v-1.91H212v.52h-.93v.17H212V233Z"/><path class="cls-57" d="M215.78,233.57c-.11,1.35-.75,2.15-2.56,2.15h-.79v-1.33h.8c.83,0,1.11-.19,1.18-.82h-2.08v-1.33h2.1v-.49h1.36v.49h.71v1.33Z"/><path class="cls-57" d="M217,234.37V233h3.87v1.34Z"/><path class="cls-57" d="M224.9,235.83h-1.14v-1h-.07v.33c0,.4-.18.56-.53.56h0v.08h-1v-1.19H222v1.11h-.66V233.6h.75v-.07h-.77v-.62h-.12a4.71,4.71,0,0,0,.09-1.28h.73v.16h.07v-.16h1v.16h.38v.88h-.38v.08h.39v.78h-.39v.07h.47v-1.92h.84v2.91h0a0,0,0,0,0,0,0v-2.92h1.06v3.52A.62.62,0,0,1,224.9,235.83Zm-2.77-3.16H222c0,.05,0,.09,0,.13h.18Zm.91,2h-.13v.18H223a0,0,0,0,0,0,0Z"/><path class="cls-57" d="M229,233v.19H230v1H229v.19H230v1H229v.42h-1.17V234h-.53v1.83h-1.16v-1.41l-.32.21V233a2,2,0,0,0,.48-1.37h1.24a4.45,4.45,0,0,1-.41,1.66h.17v.5a10.88,10.88,0,0,0,.38-2.16h1.19a1.49,1.49,0,0,1,0,.21h1.18V233Z"/><ellipse class="cls-6" cx="262.92" cy="175.79" rx="28.84" ry="2.63"/><ellipse class="cls-6" cx="262.92" cy="175.79" rx="28.84" ry="2.63"/><g id="レイヤー_3-2" data-name="レイヤー 3"><circle class="cls-6" cx="290.64" cy="166.88" r="11.69"/><circle class="cls-6" cx="290.64" cy="166.88" r="8.18"/><polygon class="cls-6" points="290 162.64 291.78 162.64 293.43 163.32 294.69 164.58 295.37 166.23 295.37 168.01 294.69 169.66 293.43 170.92 291.78 171.6 290 171.6 288.35 170.92 287.09 169.66 286.41 168.01 286.41 166.23 287.09 164.58 288.35 163.32 290 162.64"/><circle class="cls-6" cx="236.98" cy="167.12" r="11.69"/><circle class="cls-6" cx="236.98" cy="167.12" r="8.18"/><polygon class="cls-6" points="236.34 162.88 238.12 162.88 239.76 163.57 241.02 164.83 241.71 166.47 241.71 168.26 241.02 169.9 239.76 171.16 238.12 171.84 236.34 171.84 234.69 171.16 233.43 169.9 232.75 168.26 232.75 166.47 233.43 164.83 234.69 163.57 236.34 162.88"/><path class="cls-6" d="M245.18,136.61s-.19.78-.55.9a26.38,26.38,0,0,0-2.41,1.56s-2.19,1.73.24,1.69c0,0,.1,1.75.64,2.23,0,0,1,1.68,5.41,3.18l2.93.81a2.68,2.68,0,0,1,.9-2.85s-.83.05-.73-1.22c0,0-4-2-2.55-3.3a2.7,2.7,0,0,1-2.38-1.2A9.94,9.94,0,0,0,245.18,136.61Z"/><path class="cls-6" d="M239.33,146.22c-1.27-1.24-.23-1.63-.23-1.63l3.43-3.79s-2.14-.06-.31-1.73a13.74,13.74,0,0,1,2.41-1.56c.55.14.68-1.4.68-1.4-2.12-.33-10.43,10.92-10.43,10.92l0,1.34-.69,2,2.81.26-1.28-1.05,3.62-3.32"/><path class="cls-6" d="M247.25,142.51l-11.54,23.78c-.88,1.73,1.44,1.19,1.81.88L249,143.49A1.18,1.18,0,0,0,247.25,142.51Z"/><path class="cls-6" d="M243.1,143c.44.87,5.31,3.31,5.41,3.18L258.1,149c1.86.17,2.88,2.3,2.88,2.3l-6.58.95,8.47,2.69-2.25,2.13-2.06.66-1.29-.41-6.46,2.1-1.64,1.15-13.59-11,3.62-3.32s0-.1-.52-.59.13-1,.13-1l3.65-3.85A5.58,5.58,0,0,0,243.1,143Z"/><path class="cls-6" d="M260.8,151.27l-6.58,1,8.47,2.69L260.61,157l-2.23.71-1.29-.41-6.46,2.1-1.47,1.13s2.35,2.64,2,3.13a15.08,15.08,0,0,0-.93,2.25l0,6.16,19.12-.49,2.94-2.84-4.06-.73-7.68-4-5.92,4.89,11-14.18Z"/><polygon class="cls-6" points="271.21 169 266.41 169.19 256.5 171.87 266.54 170.2 271.21 169"/><path class="cls-6" d="M265.7,154.7l-1.32,1.71,3.32,1.17a3,3,0,0,1,1.62,3.82l-1.18,6.36,4.21,1,3.13-1.71s1.52-.93,1.47-1.51l2.88-6-4.69,1.56-.93,1.28s-4.16.63.49-4.75l-.59-1s-3.86,1-2.59-1.46C271.52,155.09,266.63,154.16,265.7,154.7Z"/><path class="cls-6" d="M264.38,156.41s6,.88,5,4.74-1.47,6.7-1.47,6.7L260.61,164,255,168.54Z"/><circle class="cls-6" cx="266.09" cy="161.79" r="2.79"/><circle class="cls-6" cx="266.09" cy="161.79" r="1.67"/><path class="cls-6" d="M252.34,144.13l-.68,1,1.22.37,6.11-2.4,12.14,4.72s1-.34.73-.93c0,0-.73-2.88-1.59-3.3,0,0-6.07-4.6-9.32-3.67a18.4,18.4,0,0,0-5.75,2.23C253,143.64,252.34,144.13,252.34,144.13Z"/><path class="cls-6" d="M274.09,149.78a38.65,38.65,0,0,0,5.77-1.22,47.1,47.1,0,0,0,4.08-3.18c0-.64-.36-.15-.36-.15s-.66.59-.66.59c.12.29-7.07,2.12-7.07,2.12l-4-.95s0,.54-.71.78C271.13,147.77,270.91,149.53,274.09,149.78Z"/><path class="cls-6" d="M284.16,145.16l-1.05.09s.59-3.76,5.14-3.86A31.19,31.19,0,0,0,294,141l-6.29,1.52A5.62,5.62,0,0,0,284.16,145.16Z"/><path class="cls-6" d="M279.64,148.63l.08-.07,4.22-3.18s2.38-3.21,4.53-3.16l2.71-.59s-2.57,1.69-6,8.08l-.9.78A6,6,0,0,0,279.64,148.63Z"/><path class="cls-6" d="M285.59,149s3.07-5.9,4.76-6.71a4.09,4.09,0,0,1,2.9-1l2.06.36s-2.22,3.3-2.35,3.3-.95.35-1.34.16Z"/><path class="cls-6" d="M292.86,144.86a4.17,4.17,0,0,1-1.24.2,20.26,20.26,0,0,0-2.7,1.76l4.37.59s-1.15.26-.46,2.08c0,0,2.31-.06,2.31-.29,0,0,4,2.19,3.95,2.45l1.53-.59s1.57,0,.92-1.44l-1.76,0-1.15-1.5s-1.1-.69.36-.62c0,0,3.3-2.74-.75-1.44l-1.11.36Z"/><path class="cls-6" d="M271.24,171.51s-1-.75.29-1.47,7-4.5,7.15-4.53a2.44,2.44,0,0,0,.45-.3l2.81-3.39,2-1.11,2.83,1,.95,1.66-2.61,3.56L277.8,169s-1.28.42-1.31,1.14S271.24,171.51,271.24,171.51Z"/><path class="cls-6" d="M285.1,166.91l2.61-3.56-.95-1.66,11.29-8.45s1.53,2.25.88,3.1S285.1,166.91,285.1,166.91Z"/><polygon class="cls-6" points="298.05 153.24 286.76 161.69 283.93 160.71 296.45 151.68 298.05 153.24"/><path class="cls-6" d="M296.45,151.68s2.93,2.8,2.48,4.66l.91-3.26S298.41,149.82,296.45,151.68Z"/><path class="cls-6" d="M260.8,151.27l4.9,3.43a17.9,17.9,0,0,1,5.82.39s-2,2.15,2.59,1.46l10.2-6.06a4.9,4.9,0,0,0-4.45-1.93c-2.72.46-4.58,1.19-5.77,1.22s-3.16-1.3-3-2L259,143.05l-6.11,2.4-1.22-.37a1.5,1.5,0,0,0,.05,2.28L258.1,149a4.54,4.54,0,0,1,2.88,2.3"/><path class="cls-6" d="M271,152l-3.25-1-3,.08-3.67-1.42.49,1.34a2.4,2.4,0,0,1,2,.64c.88.86,3.13,2.74,3.13,2.74l.84-.76-.89-.86s-.95-.8.35-.73S271,152,271,152Z"/><path class="cls-6" d="M249.75,143.62s.81-.52,1.83,1.73l9,4.23-11.23-4s-1-.17-.37-1S249.75,143.62,249.75,143.62Z"/><circle class="cls-6" cx="252.78" cy="141.31" r="0.52"/><path class="cls-6" d="M250.5,140.26a1.12,1.12,0,0,0-1.86-.32c-1.24,1,.78,3.23,1.83,1.34"/><path class="cls-6" d="M252.78,140.79l-3.13-.56s-.79.39-.16,1l3,.49S251.77,141.11,252.78,140.79Z"/><path class="cls-6" d="M280,153.11l-1.17.72s3.52,3.39,3.36,3.33l-5.42-2.22-.72.52,7,2.84.91-.62Z"/></g><path class="cls-58" d="M181.16,116.07a1.94,1.94,0,1,1,1.94-1.94A1.94,1.94,0,0,1,181.16,116.07Z"/><path class="cls-58" d="M186.89,116.07h-1.13v-1.29h1.14c.83,0,1-.22,1-.94v-.13h-1.51v.65H185.1v-2h1.34v-.31h1.47v.31h1.35v1.52C189.26,115.21,188.77,116.07,186.89,116.07Z"/><path class="cls-58" d="M190,116v-1h1.13v-.52c0-.36,0-.46-.17-.5h-.93v-1h3.2v1h-1.11a.73.73,0,0,1,.09.42v.6h1v1Z"/><path class="cls-58" d="M198.17,113.3v.41c0,1.69-1.2,2.4-3.09,2.4h-.74V114.8h.78c1.26,0,1.72-.26,1.72-1v-.25h-2.66v-1.25h3v-.14h1.09v.52h-.95v.16h.95v.51Z"/><path class="cls-58" d="M202.62,113.89c-.05,1.39-.65,2.17-2.32,2.17h-1.13v-1.29h1.12c.85,0,1-.18,1-.88h-1.11v.72h-1.32v-.72h-.25v-1.3h.25v-.44h1.32v.44h1.11v-.44h1.34v.44h.24v1.3Z"/><path class="cls-58" d="M207,113.44a1.68,1.68,0,0,0-.78.15v2.55h-1.31v-1.82l-.17.09a2.71,2.71,0,0,1-1.32.26h-.24v-1.32h.3a1.28,1.28,0,0,0,.75-.21l1.51-.79a1.85,1.85,0,0,1,1-.23h.66v1.32Z"/><path class="cls-58" d="M211,114.94a5.64,5.64,0,0,1-1.74-.23v1.36H207.9v-4h1.39V113c0,.42.7.57,1.74.57h.56v1.33Z"/><path class="cls-58" d="M215,116.12h-.26V115a1.1,1.1,0,0,1-1.2,1.08,1.29,1.29,0,0,1-1.32-1.46v-.86a1.59,1.59,0,0,1,1.69-1.71h.71a1.63,1.63,0,0,1,1.72,1.7v.74C216.31,115.54,215.81,116.12,215,116.12Zm-1.25-2.65a.39.39,0,0,0-.35.42v.64c0,.17.08.2.16.2a.18.18,0,0,0,.19-.2Zm1.36.44c0-.23-.07-.39-.33-.44v1.23h.06c.17,0,.27-.07.27-.3Z"/><path class="cls-58" d="M216.67,116.15V115h.2v-1.15l-.2,0v-1.31c.85,0,1.11-.25,1.25-.55h1.7c.15.3.42.49,1.25.55v1.31l-.24,0v1h-1.14V115h1.38v1.16Zm1.58-2.76a2.22,2.22,0,0,1-.64.3h.49V115h.15Zm.52-.47a2.76,2.76,0,0,1-.29.3h.59A2.83,2.83,0,0,1,218.77,112.92Zm.72.59v.29h.9A3.28,3.28,0,0,1,219.49,113.51Z"/><path class="cls-58" d="M223.85,113.1v.12h.38V115h-1.89v-1.82h.37v-.12h-1.53V112h4.21v1.08Zm-2.61,3v-2.9h1v1.92h2.1v-1.92h1v2.9Zm1.83-2.29h-.15V114h.15Zm0,.47h-.15v.17h.15Zm.57-.47h-.15V114h.15Zm0,.47h-.15v.17h.15Z"/><path class="cls-58" d="M227.12,114.76v-1.29h1.35v1.29Z"/><path class="cls-58" d="M233.78,116.18h-1.14v-1h-.07v.33c0,.4-.18.56-.53.56h0v.08h-1V115h-.1v1.11h-.65V114H231v-.07h-.78v-.62h-.11a5.28,5.28,0,0,0,.08-1.28h.73v.16H231V112H232v.16h.39V113H232v.08h.39v.78H232V114h.47V112h.84v2.91h0a0,0,0,0,0,0,0V112h1.06v3.52A.62.62,0,0,1,233.78,116.18ZM231,113h-.17a.62.62,0,0,0,0,.13H231Zm.9,2h-.13v.18h.09a0,0,0,0,0,0,0Z"/><path class="cls-58" d="M237.9,113.39v.19h.95v1h-.95v.19h.95v1h-.95v.42h-1.17v-1.83h-.53v1.83H235v-1.41l-.31.21v-1.62a2,2,0,0,0,.47-1.37h1.25a4.46,4.46,0,0,1-.42,1.66h.17v.5a10.2,10.2,0,0,0,.38-2.16h1.19a1.49,1.49,0,0,1,0,.21h1.18v1.2Z"/><path class="cls-58" d="M181.16,124A1.94,1.94,0,1,1,183.1,122,1.94,1.94,0,0,1,181.16,124Z"/><path class="cls-58" d="M186.89,124h-1.13v-1.29h1.14c.83,0,1-.22,1-.94v-.13h-1.51v.65H185.1v-2h1.34V120h1.47v.32h1.35v1.52C189.26,123.11,188.77,124,186.89,124Z"/><path class="cls-58" d="M190,123.94v-1h1.13v-.52c0-.36,0-.46-.17-.5h-.93v-1h3.2v1h-1.11a.73.73,0,0,1,.09.42v.6h1v1Z"/><path class="cls-58" d="M198.17,121.2v.41c0,1.68-1.2,2.4-3.09,2.4h-.74V122.7h.78c1.26,0,1.72-.26,1.72-1v-.25h-2.66v-1.25h3V120h1.09v.51h-.95v.17h.95v.51Z"/><path class="cls-58" d="M202.62,121.79c-.05,1.39-.65,2.17-2.32,2.17h-1.13v-1.29h1.12c.85,0,1-.18,1-.88h-1.11v.72h-1.32v-.72h-.25v-1.3h.25v-.44h1.32v.44h1.11v-.44h1.34v.44h.24v1.3Z"/><path class="cls-58" d="M207,121.34a1.56,1.56,0,0,0-.78.15V124h-1.31v-1.82l-.17.09a2.71,2.71,0,0,1-1.32.26h-.24v-1.32h.3a1.28,1.28,0,0,0,.75-.21l1.51-.8a2,2,0,0,1,1-.23h.66v1.33Z"/><path class="cls-58" d="M211,122.84a5.33,5.33,0,0,1-1.74-.24V124H207.9v-4h1.39v.93c0,.43.7.58,1.74.58h.56v1.33Z"/><path class="cls-58" d="M212.32,124v-1.32h2.51v-1c0-.17,0-.22-.23-.22h-2.28v-1.32h2.28c1.38,0,1.57.3,1.57,1.54V124Z"/><path class="cls-58" d="M220.64,121.83c-.2,1.5-1,2.13-2.68,2.13h-1.25v-1.27h1.09c1.18,0,1.41-.36,1.53-1,.21-1.08.47-1.5,1.51-1.62v1.45A.28.28,0,0,0,220.64,121.83Zm-3.91-.39v-1.26h1.86v1.26Z"/><path class="cls-58" d="M225.18,121.79c0,1.39-.64,2.17-2.32,2.17h-1.12v-1.29h1.12c.85,0,1-.18,1-.88h-1.1v.72h-1.32v-.72h-.25v-1.3h.25v-.44h1.32v.44h1.11v-.44h1.33v.44h.24v1.3Z"/><path class="cls-58" d="M225.71,124v-1.41c.18,0,.24-.13.24-.56v-2h1.17v1.84C227.12,123.38,226.71,123.89,225.71,124Zm3-2.4h0c0,.85-.17,1-.22,1h-.05l0-.23V120H227.3V124h1.12c1.07,0,1.51-.77,1.51-2.4Zm1.19,0h0Z"/><path class="cls-58" d="M233.62,122.6c-.08.79-.46,1.38-1.78,1.38h-1.45v-1.25h1.27c.41,0,.52-.08.55-.28h-2v-1h4.23v1.12Zm-3.33-1.33v-1.13h4.09v1.13Z"/><path class="cls-58" d="M238.24,121.88a1.25,1.25,0,0,0-.63.12v2h-1.09v-1.46l-.13.07a2.15,2.15,0,0,1-1.08.22h-.22V121.8h.27a1.07,1.07,0,0,0,.61-.16l1.23-.64a1.6,1.6,0,0,1,.82-.18h.54v1.06Z"/><path class="cls-58" d="M243.21,121.83c-.2,1.5-1.05,2.13-2.68,2.13h-1.25v-1.27h1.09c1.18,0,1.41-.36,1.52-1,.22-1.08.48-1.5,1.52-1.62v1.45A.27.27,0,0,0,243.21,121.83Zm-3.92-.39v-1.26h1.87v1.26Z"/><path class="cls-58" d="M247.88,121.19v.54c0,1.15-.44,2.25-2.69,2.25H244v-1.29h1.18c1.16,0,1.36-.44,1.36-1v-.37h-1.17a1.83,1.83,0,0,1-1.55.84v-1.34a.7.7,0,0,0,.64-.67v-.1h2.42V120H248v.51h-.9v.17h.9v.51Z"/><path class="cls-58" d="M181.16,131.87a1.94,1.94,0,1,1,1.94-1.94A1.94,1.94,0,0,1,181.16,131.87Z"/><path class="cls-58" d="M188.9,129.24a1.68,1.68,0,0,0-.78.14v2.55H186.8v-1.81l-.16.09a2.74,2.74,0,0,1-1.32.26h-.24v-1.32h.29a1.33,1.33,0,0,0,.76-.21l1.51-.8a1.92,1.92,0,0,1,1-.23h.66v1.33Z"/><path class="cls-58" d="M191.8,131.87H190v-1.24h2c.32,0,.42-.08.42-.24v-.08h-2.75v-1.07h4.14v.93C193.75,131.13,193.33,131.87,191.8,131.87Zm-2.12-2.81V128h4v1.08Z"/><path class="cls-58" d="M196.44,131.35a4.47,4.47,0,0,1-2.31.55v-1.33c1.78,0,2.28-.88,2.28-1.25v-.09h-2.13V128h3.52v1a2.66,2.66,0,0,1-.39,1.38,2.39,2.39,0,0,0,.88.14v1.32A2.64,2.64,0,0,1,196.44,131.35Z"/><path class="cls-58" d="M202,130.74a5.37,5.37,0,0,1-1.74-.24v1.37h-1.39v-4h1.39v.93c0,.43.7.58,1.74.58h.57v1.33Z"/><path class="cls-58" d="M204.55,130.56v-1.29h1.36v1.29Z"/><path class="cls-58" d="M207.64,131.92v-1.41c.34-.07.44-.27.44-.64v-1.94h1.29v1.91A1.83,1.83,0,0,1,207.64,131.92Zm3.75-2.79v.74c0,.37.11.58.43.64v1.41a1.83,1.83,0,0,1-1.72-2.08v-1.91h1.76v.52h-.93v.17h.93v.51Z"/><path class="cls-58" d="M215.63,129.72c-.11,1.35-.75,2.15-2.56,2.15h-.79v-1.33h.81c.82,0,1.1-.19,1.18-.82h-2.09v-1.33h2.1v-.49h1.37v.49h.71v1.33Z"/><path class="cls-58" d="M216.84,130.52v-1.34h3.87v1.34Z"/><path class="cls-58" d="M224.75,132h-1.14v-1h-.07v.32c0,.41-.18.56-.52.56H223V132h-1v-1.2h-.1v1.11h-.65v-2.14H222v-.07h-.78v-.62h-.11a5.76,5.76,0,0,0,.09-1.29h.72v.17H222v-.17h1v.17h.38v.88H223v.08h.38v.78H223v.07h.46v-1.92h.84v2.91h0a0,0,0,0,0,0,0v-2.93h1.06v3.52A.62.62,0,0,1,224.75,132ZM222,128.82h-.17c0,.05,0,.09,0,.13H222Zm.91,2h-.14V131h.09s.05,0,.05,0Z"/><path class="cls-58" d="M228.87,129.19v.19h.95v1h-.95v.18h.95v1h-.95V132H227.7v-1.84h-.53V132H226v-1.41l-.31.21v-1.62a2,2,0,0,0,.47-1.38h1.25a4.18,4.18,0,0,1-.42,1.66h.17v.51a10.18,10.18,0,0,0,.38-2.17h1.2a1.8,1.8,0,0,0,0,.22h1.18v1.2Z"/><path class="cls-58" d="M285,195.75c0,.1,0,.21,0,.32,0,.76-.49,1.08-1.42,1.08h-1.17c-.12,0-.17.06-.17.13s.05.13.17.13H285v1.22h-2.8c-.92,0-1.25-.45-1.25-1.35s.55-1.12,1.31-1.12h1.29c.09,0,.14,0,.14-.12a.13.13,0,0,0-.14-.12h-2.4v-1.23h2.44a1.72,1.72,0,0,1,.33,0v-.13h1.2v.52h-.9v.14h.9v.51Z"/><path class="cls-58" d="M289.46,197.34l.17,0v1.33a2,2,0,0,1-1-.65v.42a5,5,0,0,1-1.8.23v-1.06H287v-.21a1.36,1.36,0,0,1-.21.1v-1.41a1.07,1.07,0,0,0,.51-.31h-.51v-.64a3.64,3.64,0,0,1-.26,1h.18v2.55h-1v-1.44l-.26.18v-1.68a1.77,1.77,0,0,0,.38-1.27h1.06a1.77,1.77,0,0,1,0,.23h.78v-.23h1.22v.23h.78v1.1h-1.07a.73.73,0,0,1-.05.12h.22a2.47,2.47,0,0,0,.07.57l.08-.56h.8Zm-1.5-.6-.18.16H288v.67l.26,0A3.6,3.6,0,0,1,288,196.74Z"/><path class="cls-58" d="M291.54,198.39v.31h-1.08v-.28a1,1,0,0,1-.52.29v-1.28c.25,0,.35-.06.4-.14H290v-1.58h.46v-.11h-.51v-1h.51v-.09h1.1v.09H292v1h-.48v.11H292v1.58h-.4l.41.19v1.22Zm-.76-2h-.16v.17h.16Zm.62,0h-.16v.17h.16Zm1.83,2.27-.07-.33h-.05a2.36,2.36,0,0,1-.07.33h-1a1.06,1.06,0,0,0,.14-.33h-.08v-2.82h.4v-.08h-.41v-.95h2v.95h-.66v.08h.64v2.82h0l.09.33Zm0-2.41H293v.13h.19Zm0,.55H293V197h.19Zm0,.56H293v.14h.19Z"/><path class="cls-58" d="M298.21,196v.46h.42v1.29h-.37c0,.66-.35.92-1.05.92h-.36a.89.89,0,0,1-.84-.49v.47h-.4c-.77,0-1.1-.34-1.1-1v-3h1.24v2.6c0,.12,0,.16.13.16a1,1,0,0,1,1.05-.95h0V196h-1v-1.18h1v-.17h1.27v.17h.43V196Zm-1,1.34H297a.13.13,0,0,0-.14.13c0,.11.05.17.15.17h0a.15.15,0,0,0,.14-.16Z"/><path class="cls-58" d="M301.86,198.19v-.27a.4.4,0,0,0-.3-.44l-.13-.06-.33.39a2,2,0,0,1-1.55.78H299v-1.27h.15a1.12,1.12,0,0,0,.94-.43l.07-.08-1-.49V194.9l1.86.94.59-.65a1.74,1.74,0,0,1,1.47-.62v1.31a.63.63,0,0,0-.56.25l-.29.33.05,0a1.47,1.47,0,0,1,.9,1.48v.23Z"/><path class="cls-58" d="M303.65,197.25V195.9h3.87v1.35Z"/><path class="cls-58" d="M308,198.59v-1.4c.18-.05.24-.13.24-.57v-2h1.16v1.85C309.41,198,309,198.51,308,198.59Zm3-2.4h0c0,.85-.17,1-.22,1h-.06l0-.23v-2.32h-1.2v3.93h1.13c1.06,0,1.51-.77,1.51-2.4Zm1.19,0Z"/><path class="cls-58" d="M315.28,197.49h-.48c-.08.67-.55,1.1-1.43,1.1h-.8v-1.28h.6c.3,0,.35-.08.35-.33v-.76h1.64a.2.2,0,0,0,.2-.21v-.09h-2.79v-1.21h4.09V196A1.29,1.29,0,0,1,315.28,197.49Z"/><path class="cls-58" d="M320.37,197.46a4.81,4.81,0,0,1-1.74-.28v1.41h-1.38v-4h1.38v.94c0,.49,1.12.58,1.74.58h.57v1.32Zm-.38-2.33v-.51h1.1v.51Zm0,.68v-.51h1.1v.51Z"/><path class="cls-58" d="M325.08,197.44a2.06,2.06,0,0,1-2.15,1.15h-1.12v-3.94h1.27v2.57h.08c.49,0,.72-.18,1-.66a1.7,1.7,0,0,1,1.55-.94V197A.76.76,0,0,0,325.08,197.44Z"/><path class="cls-58" d="M328.38,198.07a4.43,4.43,0,0,1-2.3.55V197.3c1.78,0,2.28-.88,2.28-1.25V196h-2.14v-1.2h3.53v1a2.68,2.68,0,0,1-.4,1.38,2.28,2.28,0,0,0,.89.15v1.31A2.65,2.65,0,0,1,328.38,198.07Z"/><path class="cls-58" d="M333.62,198.42v-.55c0-.1,0-.15-.13-.16,0,.59-.23.93-.93.93h-1.07a.85.85,0,0,1-.93-1c0-.59.38-.88,1-.88h.76v-.15h-1.59v-.88h1.59v-.16h-1.59v-.89h1.59v-.15h1.26v.15h1v.89h-1v.16h1v.88h-1v.15h.11a1,1,0,0,1,1.07,1v.6Zm-1.29-.93h-.6a.1.1,0,0,0-.1.1.09.09,0,0,0,.1.09h.49c.08,0,.11,0,.11-.08Z"/><path class="cls-58" d="M338.52,195.78V196h-.65a.89.89,0,0,0-1,.89c0,.28.21.42.55.42H339v1.33h-1.64c-1.31,0-1.85-.64-1.85-1.66a1.59,1.59,0,0,1,.36-1h-.76V194.7h3.05v-.08h1.1v.51h-.75v.15h.75v.5Z"/><path class="cls-58" d="M342.15,197.54h-.95l-.26-1.73V194.5h1.48v1.31Zm-1.13,1.2v-1.12h1.3v1.12Z"/><polygon class="cls-59" points="174.19 103.05 250.93 103.05 351 -3.71 281.74 -3.71 174.19 103.05"/><ellipse class="cls-6" cx="266.85" cy="68.63" rx="28.84" ry="2.63"/><ellipse class="cls-6" cx="266.85" cy="68.63" rx="28.84" ry="2.63"/><g id="レイヤー_3-3" data-name="レイヤー 3"><circle class="cls-6" cx="294.58" cy="59.72" r="11.69"/><circle class="cls-6" cx="294.58" cy="59.72" r="8.18"/><polygon class="cls-6" points="293.93 55.48 295.71 55.48 297.36 56.17 298.62 57.43 299.3 59.07 299.3 60.86 298.62 62.5 297.36 63.76 295.71 64.44 293.93 64.44 292.28 63.76 291.02 62.5 290.34 60.86 290.34 59.07 291.02 57.43 292.28 56.17 293.93 55.48"/><circle class="cls-6" cx="240.91" cy="59.96" r="11.69"/><circle class="cls-6" cx="240.91" cy="59.96" r="8.18"/><polygon class="cls-6" points="240.27 55.73 242.05 55.73 243.7 56.41 244.96 57.67 245.64 59.32 245.64 61.1 244.96 62.75 243.7 64.01 242.05 64.69 240.27 64.69 238.62 64.01 237.36 62.75 236.68 61.1 236.68 59.32 237.36 57.67 238.62 56.41 240.27 55.73"/><path class="cls-6" d="M249.11,29.46s-.19.78-.55.89a28.49,28.49,0,0,0-2.41,1.57s-2.19,1.73.24,1.69c0,0,.1,1.75.65,2.22,0,0,1,1.68,5.4,3.18l2.94.82a2.68,2.68,0,0,1,.89-2.86s-.83.05-.73-1.22c0,0-3.95-2-2.54-3.29a2.71,2.71,0,0,1-2.38-1.21A9.72,9.72,0,0,0,249.11,29.46Z"/><path class="cls-6" d="M243.26,39.06c-1.27-1.24-.23-1.63-.23-1.63l3.43-3.78s-2.14-.07-.31-1.73a14.35,14.35,0,0,1,2.41-1.57c.55.14.69-1.4.69-1.4-2.12-.33-10.44,10.93-10.44,10.93l0,1.33-.69,2,2.81.26-1.28-1,3.62-3.33"/><path class="cls-6" d="M251.19,35.36,239.64,59.13c-.88,1.73,1.44,1.2,1.81.88L253,36.34A1.17,1.17,0,0,0,251.19,35.36Z"/><path class="cls-6" d="M247,35.83c.43.87,5.3,3.31,5.4,3.18L262,41.82c1.86.18,2.89,2.3,2.89,2.3l-6.58,1,8.46,2.69-2.25,2.13-2.06.66-1.29-.42-6.46,2.1-1.64,1.15-13.59-11,3.62-3.33s0-.1-.52-.58.13-1,.13-1l3.65-3.84A5.49,5.49,0,0,0,247,35.83Z"/><path class="cls-6" d="M264.74,44.12l-6.58,1,8.46,2.69-2.08,2.08-2.23.71L261,50.13l-6.46,2.11-1.47,1.12s2.35,2.64,2,3.13a15.08,15.08,0,0,0-.93,2.25l.05,6.17,19.13-.49,2.93-2.84-4.06-.73-7.68-4-5.92,4.9,11-14.19Z"/><polygon class="cls-6" points="275.14 61.84 270.35 62.03 260.43 64.71 270.48 63.05 275.14 61.84"/><path class="cls-6" d="M269.63,47.54l-1.32,1.71,3.32,1.18a3,3,0,0,1,1.62,3.81l-1.18,6.36,4.21,1,3.13-1.71s1.52-.93,1.47-1.52l2.89-6-4.7,1.57-.93,1.27s-4.16.64.49-4.74l-.59-1s-3.86,1-2.59-1.47C275.45,47.93,270.56,47,269.63,47.54Z"/><path class="cls-6" d="M268.31,49.25s6,.88,5,4.75-1.47,6.7-1.47,6.7l-7.29-3.87L259,61.38Z"/><circle class="cls-6" cx="270.02" cy="54.63" r="2.79"/><circle class="cls-6" cx="270.02" cy="54.63" r="1.67"/><path class="cls-6" d="M256.27,37l-.68,1,1.22.36,6.12-2.39,12.13,4.72s1-.34.73-.93c0,0-.73-2.89-1.59-3.3,0,0-6.06-4.6-9.32-3.67a18.24,18.24,0,0,0-5.74,2.22C256.88,36.48,256.27,37,256.27,37Z"/><path class="cls-6" d="M278,42.62a38.37,38.37,0,0,0,5.77-1.22,43.85,43.85,0,0,0,4.08-3.18c0-.64-.36-.15-.36-.15s-.66.59-.66.59c.12.29-7.07,2.13-7.07,2.13l-4-1s0,.54-.71.79C275.06,40.62,274.84,42.38,278,42.62Z"/><path class="cls-6" d="M288.09,38l-1,.1s.59-3.77,5.14-3.87a30.9,30.9,0,0,0,5.75-.41l-6.29,1.51A5.62,5.62,0,0,0,288.09,38Z"/><path class="cls-6" d="M283.57,41.47l.09-.06,4.21-3.19s2.38-3.2,4.53-3.15l2.71-.59s-2.56,1.69-6,8.07l-.91.78A6,6,0,0,0,283.57,41.47Z"/><path class="cls-6" d="M289.52,41.85s3.07-5.9,4.76-6.72a4.07,4.07,0,0,1,2.91-1l2.05.36s-2.22,3.29-2.35,3.29-.94.36-1.34.16Z"/><path class="cls-6" d="M296.79,37.71a4.2,4.2,0,0,1-1.24.19,20.26,20.26,0,0,0-2.7,1.76l4.37.59s-1.14.26-.46,2.09c0,0,2.32-.07,2.32-.3,0,0,4,2.19,3.94,2.45l1.54-.59s1.56,0,.91-1.43l-1.76,0L302.57,41s-1.11-.68.35-.62c0,0,3.3-2.74-.75-1.43l-1.1.35Z"/><path class="cls-6" d="M275.17,64.35s-1-.75.3-1.47,7-4.5,7.14-4.53a2.06,2.06,0,0,0,.45-.29l2.81-3.39,2-1.11,2.84,1,.94,1.67L289,59.75l-7.3,2.12s-1.27.43-1.31,1.14S275.17,64.35,275.17,64.35Z"/><path class="cls-6" d="M289,59.75l2.61-3.55-.94-1.67L302,46.09s1.53,2.25.88,3.1S289,59.75,289,59.75Z"/><polygon class="cls-6" points="301.98 46.09 290.69 54.53 287.86 53.56 300.38 44.52 301.98 46.09"/><path class="cls-6" d="M300.38,44.52s2.94,2.81,2.48,4.67l.91-3.26S302.34,42.66,300.38,44.52Z"/><path class="cls-6" d="M264.74,44.12l4.89,3.42a18.22,18.22,0,0,1,5.82.39s-2,2.15,2.59,1.47l10.2-6.07a4.92,4.92,0,0,0-4.45-1.93c-2.72.46-4.57,1.2-5.77,1.22s-3.16-1.29-3-2L262.93,35.9l-6.12,2.39-1.22-.36a1.5,1.5,0,0,0,0,2.27L262,41.82a4.62,4.62,0,0,1,2.89,2.3"/><path class="cls-6" d="M275,44.8l-3.25-1-3,.07L265,42.45l.49,1.35a2.41,2.41,0,0,1,2,.63c.89.86,3.14,2.74,3.14,2.74l.83-.76-.88-.85s-1-.81.34-.74S275,44.8,275,44.8Z"/><path class="cls-6" d="M253.68,36.46s.81-.51,1.84,1.74l9,4.23-11.23-4s-1-.18-.37-1A13.06,13.06,0,0,0,253.68,36.46Z"/><circle class="cls-6" cx="256.71" cy="34.15" r="0.52"/><path class="cls-6" d="M254.43,33.11a1.12,1.12,0,0,0-1.86-.33c-1.24,1,.78,3.23,1.83,1.34"/><path class="cls-6" d="M256.71,33.63l-3.13-.55s-.79.39-.16.94l3,.49S255.7,34,256.71,33.63Z"/><path class="cls-6" d="M283.91,46l-1.17.72s3.52,3.39,3.36,3.32l-5.42-2.22-.71.53,6.94,2.83.92-.62Z"/></g><path class="cls-60" d="M186.47,9.75a1.94,1.94,0,1,1,1.94-1.94A1.94,1.94,0,0,1,186.47,9.75Z"/><path class="cls-60" d="M192.19,9.74h-1.12V8.45h1.14c.83,0,1-.21,1-.94V7.38h-1.52V8h-1.32v-2h1.33V5.74h1.48v.31h1.35V7.58C194.57,8.88,194.08,9.74,192.19,9.74Z"/><path class="cls-60" d="M195.34,9.72v-1h1.12V8.19c0-.37,0-.46-.16-.5h-.93v-1h3.19v1h-1.1a.69.69,0,0,1,.09.42v.6h1v1Z"/><path class="cls-60" d="M203.48,7v.4c0,1.69-1.2,2.4-3.09,2.4h-.74V8.48h.77c1.27,0,1.73-.26,1.73-1.06V7.17h-2.67V5.93h3.05V5.78h1.1V6.3h-.95v.17h.95V7Z"/><path class="cls-60" d="M207.92,7.56c0,1.39-.64,2.17-2.31,2.17h-1.13V8.45h1.12c.85,0,1-.18,1-.89h-1.1v.72h-1.32V7.56h-.25V6.26h.25V5.82h1.32v.44h1.11V5.82h1.33v.44h.24v1.3Z"/><path class="cls-60" d="M212.26,7.11a1.68,1.68,0,0,0-.78.15V9.81h-1.32V8l-.16.09a2.68,2.68,0,0,1-1.32.27h-.24V7h.3a1.21,1.21,0,0,0,.75-.21L211,6a1.83,1.83,0,0,1,1-.23h.66V7.11Z"/><path class="cls-60" d="M216.34,8.62a5.28,5.28,0,0,1-1.74-.24V9.74h-1.39v-4h1.39v.94c0,.43.7.58,1.74.58h.56V8.62Z"/><path class="cls-60" d="M220.28,9.79H220V8.72a1.1,1.1,0,0,1-1.2,1.07,1.29,1.29,0,0,1-1.32-1.45V7.48a1.6,1.6,0,0,1,1.69-1.72h.7a1.63,1.63,0,0,1,1.73,1.7V8.2C221.62,9.22,221.12,9.79,220.28,9.79ZM219,7.14a.4.4,0,0,0-.35.43V8.2c0,.17.08.21.16.21A.18.18,0,0,0,219,8.2Zm1.36.44a.39.39,0,0,0-.33-.44V8.37h.06c.17,0,.27-.07.27-.3Z"/><path class="cls-60" d="M222,9.83V8.67h.2V7.52l-.2,0V6.23c.85,0,1.11-.25,1.25-.56h1.7c.15.31.42.5,1.25.56V7.54l-.24,0v1H224.8v.2h1.38V9.83Zm1.58-2.77a2.3,2.3,0,0,1-.65.31h.5v1.3h.15Zm.52-.47a2.76,2.76,0,0,1-.29.3h.59A2.83,2.83,0,0,1,224.08,6.59Zm.72.59v.3h.9A3,3,0,0,1,224.8,7.18Z"/><path class="cls-60" d="M229.16,6.78v.11h.38V8.72h-1.9V6.89H228V6.78h-1.54V5.7h4.22V6.78Zm-2.61,3V6.89h1V8.82h2.1V6.89h1V9.8Zm1.83-2.3h-.15v.17h.15Zm0,.48h-.15v.17h.15ZM229,7.5h-.15v.17H229ZM229,8h-.15v.17H229Z"/><path class="cls-60" d="M232.43,8.44V7.14h1.35v1.3Z"/><path class="cls-60" d="M239.09,9.85H238v-1h-.07v.32c0,.4-.18.56-.53.56h0v.08h-1V8.66h-.1V9.77h-.66V7.63h.75V7.56h-.77V6.93h-.12a4.71,4.71,0,0,0,.09-1.28h.73v.16h.07V5.65h1v.16h.38v.88h-.38v.08h.39v.79h-.39v.07h.47V5.71h.84V8.62h0a0,0,0,0,0,0,0V5.65h1.06V9.17A.61.61,0,0,1,239.09,9.85Zm-2.77-3.16h-.16s0,.09,0,.13h.18Zm.91,2h-.13v.18h.09s0,0,0,0Z"/><path class="cls-60" d="M243.21,7.07v.18h.95v1h-.95v.18h.95v1h-.95v.43H242V8h-.53V9.85h-1.16V8.44a2.49,2.49,0,0,1-.32.2V7a2,2,0,0,0,.48-1.38h1.24a4.36,4.36,0,0,1-.41,1.66h.17v.5a10.63,10.63,0,0,0,.38-2.16h1.19a1.64,1.64,0,0,1,0,.22h1.18v1.2Z"/><path class="cls-60" d="M186.47,17.65a1.94,1.94,0,1,1,1.94-1.94A1.94,1.94,0,0,1,186.47,17.65Z"/><path class="cls-60" d="M192.19,17.64h-1.12V16.35h1.14c.83,0,1-.21,1-.94v-.13h-1.52v.66h-1.32V14h1.33v-.31h1.48V14h1.35v1.53C194.57,16.78,194.08,17.64,192.19,17.64Z"/><path class="cls-60" d="M195.34,17.62v-1h1.12v-.52c0-.37,0-.46-.16-.5h-.93v-1h3.19v1h-1.1a.69.69,0,0,1,.09.42v.6h1v1Z"/><path class="cls-60" d="M203.48,14.88v.4c0,1.69-1.2,2.4-3.09,2.4h-.74V16.37h.77c1.27,0,1.73-.25,1.73-1.05v-.25h-2.67V13.83h3.05v-.15h1.1v.52h-.95v.17h.95v.51Z"/><path class="cls-60" d="M207.92,15.46c0,1.39-.64,2.17-2.31,2.17h-1.13V16.35h1.12c.85,0,1-.18,1-.89h-1.1v.72h-1.32v-.72h-.25v-1.3h.25v-.44h1.32v.44h1.11v-.44h1.33v.44h.24v1.3Z"/><path class="cls-60" d="M212.26,15a1.68,1.68,0,0,0-.78.15v2.55h-1.32V15.89L210,16a2.71,2.71,0,0,1-1.32.26h-.24V14.92h.3a1.21,1.21,0,0,0,.75-.21l1.51-.79a1.83,1.83,0,0,1,1-.23h.66V15Z"/><path class="cls-60" d="M216.34,16.51a5.31,5.31,0,0,1-1.74-.23v1.36h-1.39v-4h1.39v.94c0,.43.7.58,1.74.58h.56v1.32Z"/><path class="cls-60" d="M217.62,17.64V16.33h2.52v-1c0-.16,0-.21-.23-.21h-2.29V13.79h2.29c1.38,0,1.56.3,1.56,1.53v2.32Z"/><path class="cls-60" d="M226,15.51c-.2,1.49-1,2.12-2.68,2.12H222V16.36h1.09c1.18,0,1.41-.35,1.52-.95.22-1.07.48-1.49,1.52-1.61v1.45C226,15.28,226,15.38,226,15.51Zm-3.92-.4V13.85h1.87v1.26Z"/><path class="cls-60" d="M230.49,15.46c0,1.39-.64,2.17-2.32,2.17H227V16.35h1.13c.85,0,1-.18,1-.89h-1.1v.72h-1.33v-.72h-.24v-1.3h.24v-.44h1.33v.44h1.11v-.44h1.33v.44h.24v1.3Z"/><path class="cls-60" d="M231,17.64v-1.4c.18,0,.24-.13.24-.56v-2h1.16v1.84C232.42,17.05,232,17.56,231,17.64Zm3-2.39h0c0,.84-.17,1-.22,1h-.06l0-.23V13.72h-1.2v3.92h1.13c1.06,0,1.51-.76,1.51-2.39Zm1.19,0h0Z"/><path class="cls-60" d="M238.92,16.28c-.07.78-.45,1.38-1.77,1.38H235.7V16.41H237c.41,0,.52-.09.55-.29h-2v-1h4.23v1.13Zm-3.32-1.34V13.81h4.09v1.13Z"/><path class="cls-60" d="M243.55,15.55a1.46,1.46,0,0,0-.64.12v2h-1.08V16.26l-.13.07a2.17,2.17,0,0,1-1.08.21h-.23V15.48h.28a1,1,0,0,0,.61-.17l1.23-.63a1.61,1.61,0,0,1,.82-.19h.54v1.06Z"/><path class="cls-60" d="M248.52,15.51c-.2,1.49-1.05,2.12-2.69,2.12h-1.24V16.36h1.09c1.18,0,1.4-.35,1.52-.95.22-1.07.48-1.49,1.52-1.61v1.45C248.58,15.28,248.54,15.38,248.52,15.51Zm-3.92-.4V13.85h1.87v1.26Z"/><path class="cls-60" d="M253.19,14.86v.54c0,1.16-.44,2.26-2.69,2.26h-1.17V16.37h1.18c1.16,0,1.35-.44,1.35-1V15h-1.17a1.77,1.77,0,0,1-1.54.84V14.53a.69.69,0,0,0,.64-.66v-.1h2.42v-.1h1.1v.51h-.9v.17h.9v.51Z"/><path class="cls-60" d="M186.47,25.55a1.94,1.94,0,1,1,1.94-1.94A1.94,1.94,0,0,1,186.47,25.55Z"/><path class="cls-60" d="M194.21,22.91a1.62,1.62,0,0,0-.78.15v2.55h-1.32V23.79l-.16.09a2.74,2.74,0,0,1-1.32.26h-.24V22.82h.29a1.26,1.26,0,0,0,.76-.21l1.5-.79a1.87,1.87,0,0,1,1-.23h.66v1.32Z"/><path class="cls-60" d="M197.11,25.54h-1.84V24.31h2c.32,0,.42-.09.42-.24V24h-2.75V22.91h4.14v.94C199.06,24.81,198.64,25.54,197.11,25.54ZM195,22.74V21.66h4v1.08Z"/><path class="cls-60" d="M201.75,25a4.47,4.47,0,0,1-2.31.55V24.25c1.78,0,2.28-.88,2.28-1.25v-.1h-2.14V21.7h3.53v1a2.7,2.7,0,0,1-.39,1.39,2.39,2.39,0,0,0,.88.14v1.31A2.59,2.59,0,0,1,201.75,25Z"/><path class="cls-60" d="M207.31,24.41a5.35,5.35,0,0,1-1.74-.23v1.36h-1.39v-4h1.39v.94c0,.43.7.58,1.74.58h.56v1.32Z"/><path class="cls-60" d="M209.86,24.24v-1.3h1.36v1.3Z"/><path class="cls-60" d="M213,25.6V24.18c.34-.06.44-.26.44-.64V21.61h1.29v1.9A1.83,1.83,0,0,1,213,25.6Zm3.74-2.8v.74c0,.38.12.59.44.64V25.6a1.83,1.83,0,0,1-1.72-2.09v-1.9h1.76v.51h-.93v.18h.93v.5Z"/><path class="cls-60" d="M220.94,23.39c-.11,1.36-.75,2.15-2.56,2.15h-.79V24.22h.81c.82,0,1.1-.2,1.17-.83h-2.08V22.07h2.1v-.49H221v.49h.71v1.32Z"/><path class="cls-60" d="M222.15,24.2V22.85H226V24.2Z"/><path class="cls-60" d="M230.06,25.65h-1.14v-1h-.07V25c0,.4-.18.56-.52.56h-.05v.08h-1V24.46h-.1v1.11h-.65V23.43h.75v-.08h-.78v-.62h-.11a5.28,5.28,0,0,0,.08-1.28h.73v.16h.08v-.16h.95v.16h.39v.88h-.39v.08h.39v.78h-.39v.08h.47V21.5h.84v2.92h0a0,0,0,0,0,0,0V21.45h1.07V25A.62.62,0,0,1,230.06,25.65Zm-2.76-3.16h-.17c0,.05,0,.09,0,.13h.18Zm.9,2h-.13v.18h.09s0,0,0,0Z"/><path class="cls-60" d="M234.18,22.87v.18h.95v1h-.95v.18h.95v1h-.95v.43H233V23.81h-.53v1.84h-1.16V24.23a2.11,2.11,0,0,1-.31.21V22.83a2.07,2.07,0,0,0,.47-1.38h1.25a4.18,4.18,0,0,1-.42,1.66h.17v.5a10,10,0,0,0,.38-2.16h1.19c0,.07,0,.14,0,.22h1.17v1.2Z"/><path class="cls-60" d="M288.91,88.6a3,3,0,0,1,0,.32c0,.76-.49,1.07-1.42,1.07h-1.16c-.13,0-.18.07-.18.13s.05.13.18.13H289v1.22h-2.8c-.92,0-1.25-.45-1.25-1.35s.55-1.11,1.32-1.11h1.29c.08,0,.13,0,.13-.13a.12.12,0,0,0-.13-.11H285.1V87.53h2.44l.33,0v-.13h1.2v.52h-.9v.14h.9v.52Z"/><path class="cls-60" d="M293.4,90.19l.16,0v1.34a2.07,2.07,0,0,1-1-.65v.42a5.26,5.26,0,0,1-1.8.22V90.5H291v-.22l-.22.11V89a1.09,1.09,0,0,0,.51-.32h-.51V88a3.71,3.71,0,0,1-.26,1h.18v2.54h-1V90.1a1.51,1.51,0,0,1-.26.18V88.61a1.79,1.79,0,0,0,.38-1.27h1.06a1.62,1.62,0,0,1,0,.22h.78v-.22h1.22v.22h.78v1.1h-1.07a.5.5,0,0,1-.05.13h.23a2.49,2.49,0,0,0,.06.57l.08-.56h.8Zm-1.51-.61-.18.17h.19v.67l.26-.06A3.27,3.27,0,0,1,291.89,89.58Z"/><path class="cls-60" d="M295.47,91.23v.31h-1.08v-.27a.94.94,0,0,1-.52.28V90.27c.25,0,.35,0,.41-.13h-.36V88.56h.46v-.11h-.5v-1h.5v-.1h1.1v.1H296v1h-.48v.11H296v1.58h-.41l.41.18v1.22Zm-.76-2h-.15v.16h.15Zm.62,0h-.15v.16h.15Zm1.83,2.26-.07-.33h0a1.26,1.26,0,0,1-.07.33h-1a1.2,1.2,0,0,0,.13-.33H296V88.4h.4v-.08H296v-1h2v1h-.67v.08H298v2.81h0l.09.33Zm0-2.41H297v.13h.2Zm0,.56H297v.14h.2Zm0,.55H297v.14h.2Z"/><path class="cls-60" d="M302.14,88.82v.45h.42v1.29h-.37c0,.66-.34.93-1.05.93h-.36A.86.86,0,0,1,300,91v.48h-.41c-.76,0-1.1-.34-1.1-1v-3h1.24v2.59c0,.13,0,.16.13.17a1,1,0,0,1,1.05-1h0v-.45h-1V87.64h1v-.17h1.27v.17h.43v1.18Zm-1,1.33h-.19a.14.14,0,0,0-.14.14c0,.11.05.16.15.16h0a.15.15,0,0,0,.14-.16Z"/><path class="cls-60" d="M305.79,91v-.26a.41.41,0,0,0-.3-.45l-.13,0-.33.38a1.94,1.94,0,0,1-1.55.79H303V90.16h.15a1.12,1.12,0,0,0,.93-.43l.07-.08-1-.49V87.75l1.86.94.59-.65a1.74,1.74,0,0,1,1.47-.62v1.31a.64.64,0,0,0-.56.24l-.28.33.05,0a1.49,1.49,0,0,1,.89,1.48V91Z"/><path class="cls-60" d="M307.58,90.09V88.75h3.87v1.34Z"/><path class="cls-60" d="M311.94,91.44V90c.18,0,.24-.13.24-.56v-2h1.17v1.84C313.35,90.84,312.94,91.35,311.94,91.44Zm3-2.4h0c0,.85-.17,1-.22,1h-.05l0-.23V87.51h-1.19v3.93h1.12c1.07,0,1.51-.77,1.51-2.4Zm1.19,0h0Z"/><path class="cls-60" d="M319.21,90.34h-.48c-.08.67-.55,1.1-1.43,1.1h-.79V90.16h.59c.3,0,.35-.08.35-.33v-.77h1.64a.2.2,0,0,0,.2-.2v-.1h-2.78v-1.2h4.08v1.33A1.29,1.29,0,0,1,319.21,90.34Z"/><path class="cls-60" d="M324.3,90.31a4.85,4.85,0,0,1-1.74-.28v1.41h-1.38v-4h1.38v.94c0,.5,1.12.58,1.74.58h.57v1.33ZM323.93,88v-.52H325V88Zm0,.68v-.51H325v.51Z"/><path class="cls-60" d="M329,90.29a2.06,2.06,0,0,1-2.15,1.15h-1.12v-4H327v2.58h.08c.49,0,.72-.19,1-.67a1.71,1.71,0,0,1,1.55-.94v1.39A.78.78,0,0,0,329,90.29Z"/><path class="cls-60" d="M332.32,90.92a4.47,4.47,0,0,1-2.31.55V90.14c1.78,0,2.28-.88,2.28-1.25V88.8h-2.14V87.59h3.53v1a2.66,2.66,0,0,1-.39,1.38,2.39,2.39,0,0,0,.88.14v1.32A2.64,2.64,0,0,1,332.32,90.92Z"/><path class="cls-60" d="M337.55,91.26v-.54c0-.1,0-.16-.13-.17,0,.59-.23.93-.93.93h-1.07a.85.85,0,0,1-.93-1c0-.59.39-.88,1-.88h.76v-.15h-1.59v-.88h1.59v-.16h-1.59v-.88h1.59v-.15h1.27v.15h1v.88h-1v.16h1v.88h-1v.15h.1a1,1,0,0,1,1.07,1v.6Zm-1.29-.92h-.6a.09.09,0,0,0-.1.1.09.09,0,0,0,.1.09h.49c.08,0,.11,0,.11-.09Z"/><path class="cls-60" d="M342.45,88.63v.2h-.65a.89.89,0,0,0-1,.89c0,.29.21.42.55.42h1.61v1.33H341.3c-1.31,0-1.85-.64-1.85-1.66a1.64,1.64,0,0,1,.36-1h-.76V87.54h3.06v-.08h1.09V88h-.75v.14h.75v.51Z"/><path class="cls-60" d="M346.08,90.38h-.95l-.26-1.72V87.34h1.48v1.32ZM345,91.58V90.46h1.3v1.12Z"/><circle class="cls-20" cx="58.53" cy="280.51" r="12.7"/><circle class="cls-20" cx="116.84" cy="280.78" r="12.7"/><path class="cls-61" d="M107.93,247.63s.21.85.6,1a28.89,28.89,0,0,1,2.62,1.7s2.38,1.88-.26,1.83c0,0-.11,1.91-.7,2.42,0,0-1.09,1.83-5.88,3.46l-3.19.88a2.9,2.9,0,0,0-1-3.1s.9.06.8-1.32c0,0,4.29-2.13,2.76-3.58a3,3,0,0,0,2.59-1.32A10.88,10.88,0,0,1,107.93,247.63Z"/><path class="cls-45" d="M114.29,258.06c1.38-1.34.25-1.77.25-1.77l-3.72-4.11s2.32-.07.33-1.88a15,15,0,0,0-2.62-1.7c-.6.15-.74-1.52-.74-1.52,2.3-.36,11.34,11.87,11.34,11.87l0,1.45.75,2.13-3,.28,1.38-1.13-3.93-3.62"/><path class="cls-12" d="M105.68,254l12.54,25.84c1,1.87-1.56,1.29-2,.95l-12.5-25.73A1.28,1.28,0,0,1,105.68,254Z"/><path class="cls-6" d="M110.19,254.55c-.47.95-5.77,3.6-5.88,3.46L93.9,261.07c-2,.18-3.14,2.49-3.14,2.49l7.15,1-9.2,2.92,2.45,2.32,2.23.71,1.41-.45,7,2.29,1.78,1.25,14.77-12-3.94-3.62s0-.1.57-.63-.14-1.1-.14-1.1l-4-4.19A6,6,0,0,1,110.19,254.55Z"/><path class="cls-62" d="M91,263.56l7.15,1-9.19,2.93,2.26,2.25,2.41.78,1.41-.46,7,2.29,1.6,1.22s-2.56,2.87-2.18,3.4a16.64,16.64,0,0,1,1,2.45l-.06,6.7-20.78-.53-3.19-3.09,4.41-.79,8.35-4.36,6.43,5.31-12-15.41Z"/><path class="cls-40" d="M85.64,267.28l1.43,1.86-3.61,1.27a3.26,3.26,0,0,0-1.76,4.15L83,281.47l-4.57,1.06L75,280.67s-1.65-1-1.6-1.65l-3.14-6.53,5.11,1.7,1,1.38s4.52.69-.53-5.16l.63-1.11s4.2,1.06,2.82-1.6C79.31,267.7,84.63,266.69,85.64,267.28Z"/><path class="cls-63" d="M87.07,269.14s-6.48.95-5.42,5.15,1.6,7.29,1.6,7.29l7.92-4.2,6.06,4.94Z"/><path class="cls-6" d="M100.15,255.79l.74,1-1.32.4-6.65-2.61-13.18,5.13s-1.09-.37-.8-1c0,0,.8-3.13,1.73-3.58,0,0,6.59-5,10.12-4A19.73,19.73,0,0,1,97,253.59C99.49,255.26,100.15,255.79,100.15,255.79Z"/><path class="cls-20" d="M76.52,261.93c-1.15.09-6.27-1.33-6.27-1.33a47.63,47.63,0,0,1-4.44-3.45c0-.69.4-.16.4-.16s.72.64.72.64c-.14.32,7.68,2.31,7.68,2.31l4.36-1s0,.59.77.85C79.74,259.75,80,261.67,76.52,261.93Z"/><path class="cls-6" d="M65.57,256.91l1.14.11s-.63-4.1-5.58-4.2a34.62,34.62,0,0,1-6.24-.45L61.72,254A6.13,6.13,0,0,1,65.57,256.91Z"/><path class="cls-51" d="M70.49,260.68l-.1-.07-4.58-3.46s-2.58-3.48-4.92-3.43l-3-.64s2.79,1.84,6.49,8.77l1,.85A6.51,6.51,0,0,1,70.49,260.68Z"/><path class="cls-6" d="M64,261.09s-3.33-6.41-5.17-7.3a4.41,4.41,0,0,0-3.16-1.13l-2.23.39s2.41,3.58,2.55,3.58,1,.39,1.45.17Z"/><path class="cls-64" d="M56.12,256.59a4.54,4.54,0,0,0,1.34.21,22.59,22.59,0,0,1,2.94,1.92l-4.74.64s1.24.28.49,2.26c0,0-2.51-.07-2.51-.32,0,0-4.33,2.38-4.29,2.66l-1.67-.64s-1.7,0-1-1.55l1.91,0,1.24-1.63s1.21-.74-.39-.67c0,0-3.58-3,.82-1.56l1.2.39Z"/><path class="cls-64" d="M64.55,280.55l-2.83-3.86,1-1.81L50.48,265.7s-1.66,2.44-.95,3.37S64.55,280.55,64.55,280.55Z"/><polygon class="cls-12" points="50.48 265.7 62.74 274.88 65.83 273.81 52.22 264 50.48 265.7"/><path class="cls-6" d="M52.22,264s-3.19,3.05-2.69,5.07l-1-3.55S50.09,262,52.22,264Z"/><path class="cls-45" d="M91,263.56l-5.31,3.72a19.56,19.56,0,0,0-6.33.42s2.18,2.34-2.82,1.6l-11.08-6.6s1.89-2.6,4.84-2.1,5,1.31,6.27,1.33,3.43-1.4,3.22-2.18l13.18-5.13,6.65,2.61,1.32-.4a1.63,1.63,0,0,1,0,2.47l-6.94,1.77a4.92,4.92,0,0,0-3.14,2.49"/><path class="cls-6" d="M79.84,264.3l3.54-1.09,3.27.08,4-1.54-.53,1.46a2.62,2.62,0,0,0-2.18.69c-1,.93-3.4,3-3.4,3l-.9-.83.95-.93s1-.87-.37-.79S79.84,264.3,79.84,264.3Z"/><path class="cls-6" d="M103,255.24s-.88-.56-2,1.88l-9.72,4.6,12.2-4.3s1.09-.19.39-1A14,14,0,0,1,103,255.24Z"/><circle class="cls-65" cx="99.67" cy="252.73" r="0.57"/><path class="cls-6" d="M102.15,251.59a1.22,1.22,0,0,1,2-.35c1.35,1.06-.85,3.51-2,1.45"/><path class="cls-66" d="M99.67,252.16l3.4-.6s.86.42.18,1l-3.22.53S100.77,252.52,99.67,252.16Z"/><path class="cls-12" d="M70.26,265.26l1.27.78s-3.82,3.68-3.65,3.61l5.89-2.41.78.57L67,270.89l-1-.67Z"/></svg>